<?xml version="1.0" encoding="utf-8"?>
<!-- Generator: Adobe Illustrator 24.2.1, SVG Export Plug-In . SVG Version: 6.00 Build 0)  -->
<svg version="1.1" id="Layer_1" xmlns="http://www.w3.org/2000/svg" xmlns:xlink="http://www.w3.org/1999/xlink" x="0px" y="0px"
	 viewBox="0 0 545 605" style="enable-background:new 0 0 545 605;" xml:space="preserve">
<style type="text/css">
	.st0{fill:#C3A6D1;}
	.st1{fill:#404359;}
	.st2{fill:#FAF7EF;}
	.st3{fill:#2CC7B8;}
</style>
<g>
	<path class="st0" d="M378.79,170.78c-0.57-1.05-1.15-2.11-1.73-3.15l-137.07,4.78c0.33,1.06,0.66,2.11,1,3.18L378.79,170.78z"/>
	<path class="st0" d="M274.57,44.92c-2.12-1.14-4.19-2.14-6.22-2.99l-29.78,1.04c-1.27,0.97-2.45,2.08-3.55,3.34L274.57,44.92z"/>
	<path class="st0" d="M384.44,181.38c-0.55-1.06-1.1-2.11-1.65-3.15l-139.33,4.86c0.36,1.06,0.72,2.11,1.08,3.17L384.44,181.38z"/>
	<path class="st0" d="M404.61,223.84c-0.45-1.05-0.91-2.11-1.37-3.16l-143.47,5.01c0.45,1.05,0.91,2.11,1.37,3.16L404.61,223.84z"/>
	<path class="st0" d="M372.89,160.2c-0.6-1.06-1.21-2.1-1.81-3.15l-134.27,4.69c0.3,1.06,0.61,2.12,0.92,3.18L372.89,160.2z"/>
	<path class="st0" d="M399.91,213.21c-0.48-1.05-0.95-2.11-1.44-3.16l-143.14,5c0.43,1.05,0.86,2.11,1.3,3.17L399.91,213.21z"/>
	<path class="st0" d="M394.99,202.59c-0.5-1.05-1-2.11-1.51-3.16l-142.35,4.97c0.4,1.06,0.81,2.11,1.22,3.17L394.99,202.59z"/>
	<path class="st0" d="M389.83,191.98c-0.53-1.06-1.05-2.11-1.58-3.16l-141.09,4.92c0.38,1.05,0.77,2.11,1.16,3.17L389.83,191.98z"/>
	<path class="st0" d="M360.22,139.06c-0.66-1.06-1.33-2.1-2-3.14l-126.93,4.43c0.24,1.06,0.49,2.12,0.74,3.19L360.22,139.06z"/>
	<path class="st0" d="M302.01,65.54c-1.13-1.06-2.25-2.09-3.37-3.09l-72.13,2.52c-0.23,1.05-0.45,2.13-0.64,3.23L302.01,65.54z"/>
	<path class="st0" d="M312.46,75.97c-1-1.06-1.99-2.09-2.98-3.11l-84.6,2.95c-0.1,1.06-0.18,2.13-0.25,3.22L312.46,75.97z"/>
	<path class="st0" d="M321.87,86.44c-0.91-1.05-1.81-2.09-2.71-3.12l-94.77,3.31c0,1.06,0,2.13,0.02,3.21L321.87,86.44z"/>
	<path class="st0" d="M289.96,55.17c-1.37-1.07-2.73-2.1-4.07-3.07l-55.8,1.95c-0.48,1.04-0.93,2.13-1.36,3.26L289.96,55.17z"/>
	<path class="st0" d="M330.54,96.92c-0.84-1.05-1.68-2.1-2.51-3.12l-103.31,3.61c0.07,1.06,0.14,2.13,0.23,3.2L330.54,96.92z"/>
	<path class="st0" d="M346.22,117.96c-0.74-1.05-1.47-2.1-2.21-3.13l-116.87,4.08c0.17,1.06,0.34,2.12,0.52,3.19L346.22,117.96z"/>
	<path class="st0" d="M338.62,107.43c-0.78-1.05-1.57-2.1-2.35-3.13l-110.6,3.86c0.12,1.06,0.25,2.12,0.39,3.2L338.62,107.43z"/>
	<path class="st0" d="M353.4,128.5c-0.7-1.05-1.4-2.1-2.1-3.14l-122.28,4.27c0.21,1.06,0.42,2.12,0.64,3.19L353.4,128.5z"/>
	<path class="st0" d="M366.7,149.62c-0.63-1.05-1.26-2.1-1.89-3.15l-130.91,4.57c0.27,1.06,0.55,2.12,0.83,3.18L366.7,149.62z"/>
	<path class="st0" d="M440.04,373.69c0.09-1.05,0.15-2.13,0.21-3.22l-88.86,3.1c0.99,1.06,1.97,2.09,2.95,3.11L440.04,373.69z"/>
	<path class="st0" d="M440.43,362.89c0-1.06-0.02-2.13-0.05-3.21l-98.31,3.43c0.9,1.05,1.8,2.09,2.69,3.12L440.43,362.89z"/>
	<path class="st0" d="M440.03,352.11c-0.07-1.06-0.15-2.12-0.24-3.2l-106.33,3.71c0.83,1.05,1.66,2.09,2.5,3.12L440.03,352.11z"/>
	<path class="st0" d="M437.52,330.61c-0.17-1.06-0.35-2.12-0.53-3.19l-119.11,4.16c0.73,1.05,1.47,2.1,2.21,3.14L437.52,330.61z"/>
	<path class="st0" d="M439.02,341.35c-0.13-1.06-0.26-2.12-0.4-3.2l-113.19,3.95c0.78,1.05,1.56,2.1,2.34,3.13L439.02,341.35z"/>
	<path class="st0" d="M409.07,234.48c-0.43-1.05-0.87-2.11-1.31-3.17l-143.33,5c0.47,1.05,0.95,2.11,1.43,3.16L409.07,234.48z"/>
	<path class="st0" d="M438.54,384.54c0.22-1.05,0.42-2.13,0.6-3.23l-77.41,2.7c1.12,1.06,2.23,2.09,3.34,3.1L438.54,384.54z"/>
	<path class="st0" d="M435.21,395.45c0.45-1.04,0.87-2.13,1.26-3.26l-62.89,2.19c1.34,1.07,2.67,2.09,3.99,3.07L435.21,395.45z"/>
	<path class="st0" d="M427.59,406.5c1.11-0.99,2.16-2.09,3.12-3.32l-42.23,1.47c1.96,1.12,3.9,2.13,5.79,3.01L427.59,406.5z"/>
	<path class="st0" d="M417.27,255.78c-0.38-1.06-0.77-2.11-1.16-3.17l-141.64,4.94c0.52,1.06,1.05,2.11,1.57,3.16L417.27,255.78z"/>
	<path class="st0" d="M421.02,266.44c-0.36-1.05-0.72-2.11-1.09-3.17l-140.09,4.89c0.55,1.06,1.1,2.11,1.65,3.15L421.02,266.44z"/>
	<path class="st0" d="M413.29,245.12c-0.41-1.05-0.82-2.11-1.23-3.17l-142.72,4.98c0.5,1.05,0.99,2.11,1.5,3.16L413.29,245.12z"/>
	<path class="st0" d="M424.5,277.11c-0.33-1.06-0.67-2.11-1.01-3.18l-138.03,4.82c0.57,1.05,1.14,2.11,1.72,3.15L424.5,277.11z"/>
	<path class="st0" d="M427.72,287.79c-0.3-1.05-0.62-2.12-0.93-3.18l-135.45,4.73c0.6,1.05,1.2,2.1,1.8,3.15L427.72,287.79z"/>
	<path class="st0" d="M435.59,319.89c-0.21-1.06-0.42-2.12-0.65-3.19l-124.2,4.33c0.69,1.05,1.39,2.1,2.08,3.14L435.59,319.89z"/>
	<path class="st0" d="M433.29,309.18c-0.24-1.06-0.5-2.12-0.75-3.19l-128.58,4.49c0.66,1.05,1.32,2.1,1.98,3.14L433.29,309.18z"/>
	<path class="st0" d="M430.65,298.48c-0.28-1.06-0.55-2.12-0.84-3.18l-132.31,4.62c0.63,1.05,1.26,2.1,1.89,3.15L430.65,298.48z"/>
</g>
<g>
	<path class="st1" d="M276.88,522.63c-0.15-0.41-0.31-0.82-0.46-1.23c-0.51-4.52-4.36-5.16-7.59-6.41
		c-15.17-5.86-31.2-9.02-46.4-14.83c-6.86-2.62-11.05-7.32-11.18-14.54c-0.2-11.08-0.04-22.16-0.04-33.24c0-8.43,0-8.32-8.55-8.36
		c-2.74-0.01-3.81,0.68-3.99,3.59c-0.72,11.78-0.04,23.56-0.33,35.34c-0.24,9.7-3.25,14.36-12.46,17.37
		c-15.58,5.09-31.28,9.83-46.95,14.66c-4.93,1.52-6.78,3.7-7.1,8.75c-0.09,1.46-0.23,2.95,2.04,2.39c1.15,0.45,2.35,0.79,3.43,1.36
		c5.62,2.92,8.14,9.39,5.89,15c-2.12,5.3-8.78,8.44-14.32,6.76c-5.67-1.72-8.95-7.41-7.73-13.69c0.36-1.88,0.16-3.52-0.16-5.43
		c-1.65-9.87,0.41-20.31,12.78-24.38c15.35-5.05,30.83-9.73,46.22-14.66c7.91-2.53,8.91-3.79,8.99-11.93
		c0.11-10.69-0.11-21.38-0.02-32.08c0.02-2.77-0.98-3.41-3.61-3.39c-13.16,0.11-26.32,0.07-39.47,0
		c-21.66-0.11-35.25-20.04-26.71-39.11c2.08-4.63,5.23-8.38,9.49-11.08c2.19-1.39,2.71-2.95,2.26-5.45
		c-2.04-11.19-4.9-22.22-6.24-33.53c-1.35-11.42-2.79-22.81-1.34-34.4c3.33-26.63,22.63-43.81,49.51-44.46
		c20.69-0.5,41.36-0.72,62.06-0.12c16.51,0.48,31.15,4.66,41.61,18.44c8.37,11.03,10.72,23.85,10.47,37.27
		c-0.35,18.73-3.97,37.04-7.68,55.31c-0.71,3.47-0.05,5.28,2.94,7.37c11.93,8.34,15,26.07,6.38,37.7
		c-5.51,7.44-12.99,11.94-22.68,11.93c-13.71-0.01-27.42,0.19-41.12,0.12c-2.87-0.02-4.22,0.48-4.17,3.74
		c0.16,11.65,0.11,23.3,0.04,34.95c-0.03,4.85,2.85,7.18,6.96,8.47c15.29,4.81,30.55,9.69,45.9,14.28
		c7.09,2.12,12.22,5.96,14.43,13.23c1.14,3.77,1.2,7.66,0.46,11.39c-0.38,1.94-0.37,3.58-0.01,5.44c1.15,5.99-0.97,10.62-5.86,13.24
		c-4.2,2.24-9.34,1.54-12.98-1.77c-6.32-5.75-4.05-17.01,4.03-19.91c1.86-0.67,4.27-0.81,3.35-3.86
		C276.94,522.9,276.88,522.63,276.88,522.63z M140.46,432.84c1.27,1.2,2.85,0.76,4.31,0.76c39.71,0.03,79.42,0.04,119.12,0.02
		c1.46,0,3.04,0.4,4.31-0.78c6.67-0.72,11.3-4.56,13.16-10.64c1.61-5.27,2.06-10.9-1.8-16.01c-4.15-5.49-9.72-7.22-16.13-7.15
		c-30.78,0.34-61.56-0.7-92.34,0.62c-9.85,0.42-19.73,0.09-29.6,0.13c-1.63,0.01-3.33-0.14-4.8,0.81
		c-6.28,4.05-10.33,8.82-9.31,18.06C128.1,425.06,133.77,431.23,140.46,432.84z M226.15,388.35c2.48-0.6,1.48-2.64,1.48-4.04
		c0.09-15.93,0.08-31.86,0.1-47.79c1.41-2.32,3.56-2.93,6.03-2.38c2.47,0.55,2.86,2.75,3.23,4.76c0.27,1.47,0.34,2.99,0.35,4.49
		c0.05,13.7,0.14,27.41,0.03,41.11c-0.02,2.96,0.69,4.18,3.88,4.03c5.33-0.25,10.69-0.08,16.03-0.09c9.82-0.03,9.85-0.02,12.14-9.57
		c4.46-18.57,6.95-37.33,6.19-56.5c-0.79-19.86-15.65-35.36-35.44-35.97c-23.56-0.72-47.14-0.81-70.7,0.05
		c-8.78,0.32-16.79,3.34-23.38,9.63c-8.58,8.19-11.71,18.57-12.06,29.94c-0.63,20.54,3.2,40.53,7.99,60.38
		c0.53,2.17,1.85,1.99,3.34,2c6.3,0.03,12.61,0.04,18.91,0.06c9.06,0.02,9.06,0.02,9.08-8.94c0.03-13.43,0.09-26.86,0.07-40.29
		c0-2.32,0.77-4.09,2.95-4.86c2.1-0.74,4.08-0.17,5.59,1.54c1.39,1.58,1.25,3.55,1.25,5.47c0.02,14.39,0.11,28.78-0.01,43.16
		c-0.03,3.02,0.78,4.02,3.91,3.97C200.11,388.32,213.13,388.38,226.15,388.35z"/>
	<path class="st1" d="M299.92,207.51c-12.19-0.06-24.39-0.09-36.58-0.21c-7.87-0.07-10.25-3.21-8.48-11
		c4.04-17.81,12.55-33.1,26.85-44.55c7.61-6.09,10.98-13.77,11.99-22.92c0.51-4.62,0.87-9.3,0.77-13.94
		c-0.3-14.35,7.51-26.4,20.93-28.24c2.49-0.34,1.59-2.25,1.59-3.51c0.09-13.02,0.08-26.04,0.09-39.06c0-2.33,0-4.66,0-6.99
		c0.01-6.15,0.01-5.95,5.94-6.08c3.23-0.07,4.07,0.93,4.05,4.13c-0.11,15.76,0.09,31.52,0.06,47.28c0,2.82,0.54,4.16,3.79,4.91
		c11.55,2.66,18.31,12.81,18.02,26.08c-0.13,6.17-0.18,12.33,0.79,18.45c1.16,7.34,4.33,13.37,10.34,18.03
		c14.91,11.57,23.57,27.12,27.91,45.26c0.61,2.54,1.08,5.2,0.03,7.69c-1.37,3.27-4.06,4.51-7.58,4.51
		c-12.74,0.01-25.48,0.14-38.22,0.22C328.13,207.55,314.02,207.53,299.92,207.51z M321,197.52c0,0.01,0,0.01,0,0.02
		c17.13,0,34.27,0,51.4,0c5.04,0,5.87-1.37,3.8-6.2c-0.21-0.5-0.53-0.96-0.67-1.48c-3.66-12.87-10.92-23.35-21.48-31.44
		c-10.01-7.67-15.18-17.55-14.95-30.23c0.1-5.21,0.06-10.42-0.03-15.63c-0.13-7.88-3.71-13.53-10.22-15.02
		c-3.53-0.8-7.35-0.44-11.04-0.43c-5.43,0.02-10.29,4.3-11.73,9.53c-2.05,7.41-1.04,14.97-1.57,22.45
		c-0.75,10.53-3.76,20.2-12.5,27.03c-12.55,9.8-21.08,22.23-25.93,37.42c-1.27,3.97,0.04,4.03,3.12,4.01
		C286.46,197.48,303.73,197.52,321,197.52z"/>
	<path class="st0" d="M133.87,526.14c-2.27,0.56-2.13-0.93-2.04-2.39c0.32-5.05,2.17-7.23,7.1-8.75
		c15.67-4.84,31.36-9.57,46.95-14.66c9.21-3.01,12.22-7.67,12.46-17.37c0.29-11.78-0.39-23.56,0.33-35.34
		c0.18-2.91,1.24-3.61,3.99-3.59c8.55,0.04,8.55-0.07,8.55,8.36c0,11.08-0.16,22.16,0.04,33.24c0.13,7.23,4.32,11.92,11.18,14.54
		c15.2,5.8,31.23,8.96,46.4,14.83c3.22,1.25,7.08,1.88,7.59,6.41c-12.62-1.5-24.83-5.05-37.28-7.37
		c-9.33-1.74-18.47-4.95-28.18-4.06c-4.07-1.32-8.12-1.22-12.17,0.09c-6.93-1.13-13.59,0.78-20.21,2.14
		c-13.59,2.81-27.08,6.09-40.57,9.34C135.87,522.06,132.72,522.35,133.87,526.14z"/>
	<path class="st1" d="M198.79,510.07c4.05-1.31,8.1-1.4,12.17-0.09c0.01,4.37-0.06,8.74,0.04,13.11c0.08,3.43,0.38,6.59,1.77,10.08
		c1.83,4.58,1.77,10.23,0.11,15.26c-1.24,3.76-5.7,5.77-9.77,4.97c-3.94-0.78-6.43-3.59-6.56-7.74c-0.12-3.96-1.36-8.59,0.23-11.74
		C200.78,525.99,197.92,517.96,198.79,510.07z"/>
	<path class="st2" d="M299.92,207.51c14.1,0.02,28.21,0.04,42.31,0.06c-4.04,9.14-14.77,13.52-26.29,11.31
		C308.1,217.37,302.96,213.64,299.92,207.51z"/>
	<path class="st3" d="M276.88,522.63c0,0,0.07,0.26,0.06,0.26c0,0-0.2-0.1-0.2-0.1L276.88,522.63z"/>
	<path class="st2" d="M226.15,388.35c-13.02,0.03-26.04-0.03-39.05,0.17c-3.12,0.05-3.93-0.95-3.91-3.97
		c0.12-14.39,0.03-28.78,0.01-43.16c0-1.92,0.14-3.89-1.25-5.47c-1.51-1.71-3.49-2.29-5.59-1.54c-2.17,0.77-2.95,2.55-2.95,4.86
		c0.02,13.43-0.04,26.86-0.07,40.29c-0.02,8.96-0.02,8.97-9.08,8.94c-6.3-0.02-12.61-0.03-18.91-0.06c-1.49-0.01-2.81,0.18-3.34-2
		c-4.79-19.85-8.62-39.84-7.99-60.38c0.35-11.37,3.47-21.75,12.06-29.94c6.59-6.29,14.6-9.31,23.38-9.63
		c23.56-0.86,47.14-0.77,70.7-0.05c19.79,0.61,34.65,16.1,35.44,35.97c0.76,19.16-1.73,37.93-6.19,56.5
		c-2.29,9.54-2.32,9.54-12.14,9.57c-5.34,0.01-10.7-0.15-16.03,0.09c-3.18,0.15-3.9-1.07-3.88-4.03c0.11-13.7,0.02-27.41-0.03-41.11
		c-0.01-1.5-0.08-3.02-0.35-4.49c-0.37-2.02-0.76-4.22-3.23-4.76c-2.47-0.55-4.63,0.06-6.03,2.38c-2,1.1-1.52,3.02-1.53,4.74
		C226.17,356.96,226.16,372.65,226.15,388.35z"/>
	<path class="st0" d="M140.46,432.84c-6.69-1.61-12.35-7.78-13.07-14.19c-1.03-9.24,3.03-14.01,9.31-18.06
		c1.47-0.95,3.16-0.8,4.8-0.81c9.87-0.04,19.75,0.3,29.6-0.13c30.78-1.32,61.56-0.28,92.34-0.62c6.4-0.07,11.98,1.67,16.13,7.15
		c3.87,5.11,3.42,10.74,1.8,16.01c-1.86,6.08-6.48,9.92-13.16,10.64C225.62,432.84,183.04,432.84,140.46,432.84z"/>
	<path class="st0" d="M140.46,432.84c42.58,0,85.16,0,127.75,0c-1.27,1.18-2.85,0.78-4.31,0.78c-39.71,0.01-79.42,0.01-119.12-0.02
		C143.31,433.6,141.72,434.04,140.46,432.84z"/>
	<path class="st2" d="M226.15,388.35c0.02-15.7,0.02-31.39,0.06-47.09c0-1.72-0.47-3.64,1.53-4.74c-0.02,15.93-0.01,31.86-0.1,47.79
		C227.62,385.71,228.63,387.75,226.15,388.35z"/>
	<path class="st0" d="M321,197.52c-17.27,0-34.54-0.04-51.82,0.04c-3.07,0.01-4.39-0.04-3.12-4.01
		c4.85-15.19,13.38-27.62,25.93-37.42c8.74-6.83,11.75-16.49,12.5-27.03c0.53-7.48-0.47-15.03,1.57-22.45
		c1.44-5.22,6.3-9.5,11.73-9.53c3.69-0.01,7.51-0.38,11.04,0.43c6.51,1.48,10.09,7.14,10.22,15.02c0.09,5.21,0.12,10.42,0.03,15.63
		c-0.23,12.68,4.93,22.56,14.95,30.23c10.57,8.09,17.82,18.57,21.48,31.44c0.15,0.52,0.46,0.98,0.67,1.48
		c2.07,4.83,1.24,6.2-3.8,6.2c-17.13,0-34.27,0-51.4,0C321,197.53,321,197.52,321,197.52z"/>
</g>
</svg>
