<?xml version="1.0" encoding="utf-8"?>
<!-- Generator: Adobe Illustrator 24.2.1, SVG Export Plug-In . SVG Version: 6.00 Build 0)  -->
<svg version="1.1" id="Layer_1" xmlns="http://www.w3.org/2000/svg" xmlns:xlink="http://www.w3.org/1999/xlink" x="0px" y="0px"
	 viewBox="0 0 545 605" style="enable-background:new 0 0 545 605;" xml:space="preserve">
<style type="text/css">
	.st0{fill:#C3A6D1;}
	.st1{fill:#FAF7EF;}
	.st2{fill:#544664;}
</style>
<g>
	<path class="st0" d="M303.15,247.5c-0.73-1.34-1.46-2.68-2.19-4l-174.12,6.08c0.42,1.34,0.84,2.69,1.27,4.04L303.15,247.5z"/>
	<path class="st0" d="M170.75,87.61c-2.69-1.45-5.33-2.72-7.91-3.8l-37.83,1.32c-1.61,1.23-3.11,2.65-4.5,4.24L170.75,87.61z"/>
	<path class="st0" d="M310.32,260.96c-0.7-1.34-1.4-2.68-2.1-4.01l-177,6.18c0.45,1.34,0.91,2.68,1.37,4.03L310.32,260.96z"/>
	<path class="st0" d="M335.94,314.9c-0.58-1.34-1.16-2.68-1.74-4.02l-182.25,6.36c0.57,1.34,1.16,2.68,1.74,4.02L335.94,314.9z"/>
	<path class="st0" d="M295.65,234.05c-0.77-1.34-1.53-2.67-2.3-4l-170.57,5.95c0.38,1.34,0.78,2.69,1.17,4.04L295.65,234.05z"/>
	<path class="st0" d="M329.98,301.4c-0.61-1.34-1.21-2.68-1.83-4.02l-181.84,6.35c0.54,1.34,1.09,2.68,1.65,4.02L329.98,301.4z"/>
	<path class="st0" d="M323.73,287.91c-0.63-1.34-1.27-2.67-1.92-4.01l-180.83,6.31c0.51,1.34,1.03,2.68,1.55,4.03L323.73,287.91z"/>
	<path class="st0" d="M317.18,274.43c-0.67-1.34-1.34-2.68-2.01-4.01l-179.22,6.26c0.48,1.34,0.98,2.68,1.47,4.03L317.18,274.43z"/>
	<path class="st0" d="M279.55,207.2c-0.84-1.34-1.69-2.67-2.53-3.99l-161.24,5.63c0.31,1.34,0.62,2.69,0.94,4.05L279.55,207.2z"/>
	<path class="st0" d="M205.62,113.81c-1.43-1.34-2.86-2.66-4.28-3.93l-91.62,3.2c-0.3,1.34-0.57,2.7-0.82,4.11L205.62,113.81z"/>
	<path class="st0" d="M218.88,127.06c-1.27-1.34-2.53-2.66-3.79-3.95l-107.47,3.75c-0.12,1.34-0.23,2.7-0.31,4.09L218.88,127.06z"/>
	<path class="st0" d="M230.84,140.35c-1.15-1.34-2.3-2.66-3.45-3.96l-120.38,4.2c0,1.34,0.01,2.7,0.03,4.08L230.84,140.35z"/>
	<path class="st0" d="M190.31,100.64c-1.74-1.36-3.47-2.66-5.17-3.9l-70.88,2.47c-0.61,1.32-1.19,2.7-1.72,4.14L190.31,100.64z"/>
	<path class="st0" d="M241.86,153.68c-1.06-1.34-2.13-2.66-3.19-3.97l-131.23,4.58c0.08,1.34,0.18,2.7,0.29,4.07L241.86,153.68z"/>
	<path class="st0" d="M261.77,180.4c-0.94-1.34-1.87-2.67-2.81-3.98L110.5,181.6c0.21,1.34,0.44,2.7,0.67,4.06L261.77,180.4z"/>
	<path class="st0" d="M252.12,167.03c-0.99-1.34-1.99-2.66-2.98-3.98l-140.5,4.9c0.15,1.34,0.32,2.7,0.49,4.06L252.12,167.03z"/>
	<path class="st0" d="M270.89,193.79c-0.89-1.34-1.77-2.67-2.66-3.99l-155.33,5.42c0.26,1.34,0.53,2.69,0.81,4.05L270.89,193.79z"/>
	<path class="st0" d="M287.79,220.62c-0.8-1.34-1.6-2.67-2.41-4l-166.3,5.8c0.35,1.34,0.7,2.69,1.06,4.04L287.79,220.62z"/>
	<path class="st0" d="M380.96,505.26c0.11-1.34,0.19-2.71,0.27-4.09l-112.88,3.94c1.25,1.34,2.51,2.66,3.75,3.95L380.96,505.26z"/>
	<path class="st0" d="M381.45,491.53c-0.01-1.34-0.02-2.7-0.06-4.08l-124.89,4.36c1.14,1.34,2.28,2.66,3.42,3.96L381.45,491.53z"/>
	<path class="st0" d="M380.94,477.84c-0.09-1.34-0.19-2.7-0.31-4.07l-135.07,4.71c1.06,1.34,2.11,2.66,3.17,3.97L380.94,477.84z"/>
	<path class="st0" d="M377.75,450.53c-0.22-1.34-0.44-2.69-0.67-4.06l-151.3,5.28c0.93,1.34,1.87,2.66,2.8,3.98L377.75,450.53z"/>
	<path class="st0" d="M379.66,464.18c-0.16-1.34-0.33-2.7-0.51-4.06l-143.79,5.02c0.99,1.34,1.98,2.66,2.97,3.98L379.66,464.18z"/>
	<path class="st0" d="M341.61,328.41c-0.55-1.34-1.1-2.68-1.66-4.02l-182.07,6.35c0.6,1.34,1.21,2.68,1.82,4.02L341.61,328.41z"/>
	<path class="st0" d="M379.04,519.03c0.28-1.34,0.53-2.7,0.76-4.11l-98.34,3.43c1.42,1.35,2.83,2.65,4.24,3.93L379.04,519.03z"/>
	<path class="st0" d="M374.81,532.89c0.57-1.32,1.1-2.7,1.6-4.14l-79.89,2.79c1.7,1.36,3.39,2.66,5.07,3.9L374.81,532.89z"/>
	<path class="st0" d="M365.14,546.94c1.41-1.26,2.74-2.66,3.96-4.22l-53.65,1.87c2.5,1.43,4.95,2.71,7.36,3.82L365.14,546.94z"/>
	<path class="st0" d="M352.04,355.47c-0.49-1.34-0.97-2.68-1.47-4.03l-179.93,6.28c0.66,1.34,1.33,2.68,2,4.01L352.04,355.47z"/>
	<path class="st0" d="M356.79,369.01c-0.45-1.34-0.92-2.69-1.38-4.03l-177.95,6.21c0.7,1.34,1.4,2.67,2.1,4.01L356.79,369.01z"/>
	<path class="st0" d="M346.97,341.93c-0.52-1.34-1.04-2.68-1.56-4.03l-181.3,6.33c0.63,1.34,1.26,2.67,1.91,4.01L346.97,341.93z"/>
	<path class="st0" d="M361.21,382.56c-0.42-1.34-0.85-2.69-1.28-4.04l-175.34,6.12c0.73,1.34,1.45,2.68,2.18,4L361.21,382.56z"/>
	<path class="st0" d="M365.31,396.13c-0.39-1.34-0.79-2.69-1.19-4.04l-172.06,6c0.76,1.34,1.52,2.67,2.29,4L365.31,396.13z"/>
	<path class="st0" d="M375.3,436.91c-0.27-1.34-0.54-2.69-0.82-4.05l-157.78,5.51c0.88,1.34,1.76,2.67,2.65,3.99L375.3,436.91z"/>
	<path class="st0" d="M372.38,423.3c-0.31-1.34-0.63-2.69-0.96-4.05l-163.33,5.7c0.84,1.34,1.68,2.67,2.52,3.99L372.38,423.3z"/>
	<path class="st0" d="M369.03,409.71c-0.35-1.34-0.7-2.69-1.07-4.04l-168.08,5.87c0.8,1.34,1.6,2.67,2.4,4L369.03,409.71z"/>
</g>
<g>
	<path class="st1" d="M292.01,400.35c-4.11,1.24-8.32,1.93-12.58,2.5c-5.34,0.72-10.64,0.47-15.92-0.23
		c-4.01-0.53-7.99-1.4-11.94-2.29c-1.73-0.39-3.36-1.21-5.03-1.83c-0.02-1.84-0.66-3.47-2.08-4.59c-1.42-1.12-1.69-2.48-1.59-4.16
		c0.46-7.72,0.79-15.45,1.3-23.17c1.9-29,2.89-58.03,4.09-87.06c0.63-15.07,1.11-30.14,1.6-45.21c0.73-22.49,1.44-44.98,2.11-67.47
		c0.12-4.08-2.57-7.49-6.47-8.59c-2.32-0.65-4.69-0.61-7.06-0.51c-15.4,0.64-30.67,2.43-45.8,5.43c-4.42,0.88-8.02-1.91-8.42-6.38
		c-0.16-1.82,0.04-3.62,0.48-5.4c1.24-4.99,2.34-9.99,1.97-15.2c-0.31-4.36-1.5-8.54-2.52-12.76c-0.71-2.92,0.25-5.21,2.45-7.19
		c2.01-1.82,4.16-1.02,6.27-0.53c16.16,3.75,32.56,5.12,49.1,5.15c6.41,0.01,10.49-4,10.52-10.28c0.06-13.36-0.83-26.66-2.51-39.92
		c-0.89-7.05-2.15-14.03-3.5-21c-0.84-4.37,2.28-7.13,6.62-6.25c1.54,0.31,3.1,0.6,4.61,1.02c11.48,3.19,22.91,3.17,34.31-0.37
		c1.05-0.33,2.15-0.55,3.24-0.66c4.25-0.41,7.25,2.84,6.19,6.97c-1.44,5.6-2.31,11.28-3.1,16.99c-1.98,14.25-2.95,28.58-3.3,42.95
		c-0.15,6.03,3.8,10.14,9.82,10.53c1.57,0.1,3.16,0.21,4.73,0.15c16.42-0.55,32.78-1.67,48.84-5.52c4.22-1.01,7.81,1.52,8.34,5.75
		c0.19,1.52-0.21,2.99-0.57,4.44c-1.38,5.46-2.44,10.96-1.69,16.62c0.51,3.83,1.22,7.64,1.74,11.47c0.91,6.72-3.57,11.06-10.2,9.81
		c-6.98-1.31-14.02-2.26-21.06-3.19c-9.71-1.29-19.44-2.41-29.24-2.54c-6.92-0.09-11,4.21-10.9,11.06c0.15,10.5,0.35,21,0.43,31.51
		c0.19,22.51,0.25,45.01,0.48,67.52c0.38,38.3,0.84,76.6,1.27,114.89c0.03,2.76,0.06,5.53,0.08,8.29c0.02,1.51-0.36,2.66-1.92,3.42
		C292.86,395.68,291.92,397.78,292.01,400.35z"/>
	<path class="st2" d="M292.01,400.35c-0.09-2.58,0.85-4.68,3.2-5.82c1.55-0.76,1.93-1.91,1.92-3.42c-0.03-2.76-0.05-5.53-0.08-8.29
		c-0.43-38.3-0.89-76.59-1.27-114.89c-0.22-22.51-0.29-45.01-0.48-67.52c-0.09-10.5-0.28-21-0.43-31.51
		c-0.1-6.86,3.98-11.15,10.9-11.06c9.8,0.13,19.53,1.25,29.24,2.54c7.04,0.93,14.08,1.88,21.06,3.19c6.63,1.25,11.11-3.09,10.2-9.81
		c-0.52-3.83-1.23-7.64-1.74-11.47c-0.76-5.66,0.31-11.16,1.69-16.62c0.37-1.45,0.76-2.92,0.57-4.44c-0.53-4.23-4.12-6.76-8.34-5.75
		c-16.05,3.85-32.41,4.98-48.84,5.52c-1.57,0.05-3.16-0.05-4.73-0.15c-6.01-0.39-9.96-4.5-9.82-10.53
		c0.35-14.37,1.32-28.7,3.3-42.95c0.79-5.71,1.66-11.39,3.1-16.99c1.06-4.13-1.94-7.38-6.19-6.97c-1.09,0.1-2.19,0.33-3.24,0.66
		c-11.4,3.54-22.83,3.56-34.31,0.37c-1.52-0.42-3.07-0.71-4.61-1.02c-4.34-0.88-7.46,1.88-6.62,6.25c1.35,6.98,2.6,13.95,3.5,21
		c1.68,13.26,2.57,26.56,2.51,39.92c-0.03,6.27-4.11,10.29-10.52,10.28c-16.54-0.03-32.95-1.4-49.1-5.15
		c-2.12-0.49-4.26-1.28-6.27,0.53c-2.19,1.98-3.15,4.27-2.45,7.19c1.02,4.22,2.2,8.4,2.52,12.76c0.37,5.2-0.73,10.21-1.97,15.2
		c-0.44,1.78-0.64,3.57-0.48,5.4c0.4,4.47,4.01,7.25,8.42,6.38c15.13-3,30.39-4.79,45.8-5.43c2.36-0.1,4.73-0.14,7.06,0.51
		c3.91,1.1,6.6,4.5,6.47,8.59c-0.67,22.49-1.38,44.98-2.11,67.47c-0.49,15.07-0.97,30.15-1.6,45.21
		c-1.21,29.03-2.19,58.07-4.09,87.06c-0.51,7.72-0.83,15.45-1.3,23.17c-0.1,1.67,0.16,3.04,1.59,4.16c1.43,1.13,2.07,2.75,2.08,4.59
		c-2.12,4.06-5.09,4.25-7.73,0.56c-2.51-3.5-3.24-7.26-2.94-11.61c1.74-25.05,3-50.13,3.91-75.23c0.94-26.12,2.03-52.24,2.96-78.36
		c0.78-21.86,1.42-43.72,2.1-65.59c0.1-3.15-0.63-3.74-3.7-3.62c-14.22,0.55-28.32,2.22-42.37,4.42c-3.33,0.52-6.57,1.63-10.05,0.76
		c-8.23-2.07-12.82-8.83-11.52-17.22c0.28-1.79,0.66-3.57,1.13-5.32c1.89-7.09,1.41-14.05-0.84-20.99
		c-2.8-8.62,2.81-17.09,11.83-18.06c1.43-0.15,2.83-0.06,4.23,0.29c15.8,4.02,31.96,4.81,48.15,5.24c2.56,0.07,4.25-1.54,4.15-3.82
		c-0.66-15.15-1.35-30.3-3.87-45.29c-0.71-4.21-1.83-8.33-2.73-12.49c-1.7-7.86,3.37-15.13,11.13-16.05c2.72-0.32,5.33,0.42,7.9,1.2
		c8.47,2.57,17.05,3.18,25.75,1.49c2.63-0.51,5.22-1.26,7.78-2.05c4.81-1.48,9.11-0.5,12.78,2.8c3.58,3.22,5.16,7.2,4.03,12.14
		c-4.3,18.87-5.84,38.05-6.5,57.34c-0.12,3.39,1.11,4.64,4.49,4.59c16.68-0.26,33.33-0.94,49.62-4.96
		c10.44-2.57,20.42,6.86,17.21,17.34c-2.58,8.43-2.35,16.67-0.31,25.2c2.81,11.72-5.98,21.07-17.95,19.23
		c-11-1.69-21.99-3.45-33.08-4.41c-5.19-0.45-10.39-0.89-15.59-1.18c-3.23-0.19-4.49,1.16-4.47,4.34
		c0.25,31.12,0.51,62.23,0.73,93.35c0.29,40.51,0.62,81.03,1.24,121.54c0.05,3.39,0.34,6.88-0.55,10.23c-0.86,3.2-2.9,5.72-5.4,7.79
		C296.05,403.74,294.09,403.06,292.01,400.35z"/>
	<path class="st0" d="M209.89,67.71c-6,0-11.99,0.03-17.99-0.01c-3.37-0.02-5.37-2.29-4.79-5.15c0.32-1.59,1.3-2.35,2.75-2.39
		c3.14-0.08,6.25-0.58,9.41-0.54c9.23,0.12,18.46,0.04,27.69,0.04c0.39,0,0.79-0.01,1.18,0c2.91,0.08,4.96,1.71,4.99,3.98
		c0.02,2.09-2.32,4.04-5.01,4.05C222.04,67.73,215.97,67.71,209.89,67.71z"/>
	<path class="st0" d="M337.12,67.71c-5.29,0-10.58,0.04-15.87-0.02c-1.8-0.02-3.63-0.16-5.38-0.52c-2.14-0.44-2.8-2.03-2.6-4.1
		c0.17-1.78,0.88-2.64,2.85-3.04c3.11-0.64,6.13,0.29,9.14,0.04c9.22-0.76,18.45-0.22,27.67-0.41c0.55-0.01,1.11-0.03,1.66,0
		c2.84,0.17,4.22,1.51,4.2,4.04c-0.02,2.28-1.75,3.95-4.36,3.98C348.65,67.74,342.88,67.71,337.12,67.71z"/>
</g>
</svg>
