<?xml version="1.0" encoding="utf-8"?>
<!-- Generator: Adobe Illustrator 24.2.1, SVG Export Plug-In . SVG Version: 6.00 Build 0)  -->
<svg version="1.1" id="Layer_1" xmlns="http://www.w3.org/2000/svg" xmlns:xlink="http://www.w3.org/1999/xlink" x="0px" y="0px"
	 viewBox="0 0 545 605" style="enable-background:new 0 0 545 605;" xml:space="preserve">
<style type="text/css">
	.st0{fill:#C3A6D1;}
	.st1{fill:#544664;}
	.st2{fill:#EFE9DB;}
</style>
<g>
	<path class="st0" d="M244.64,388.36c-1.52,0.03-3.05,0.06-4.56,0.1l-70.93,70.93c1.39,0.09,2.78,0.19,4.18,0.28L244.64,388.36z"/>
	<path class="st0" d="M42.87,410.13c-2.48,0.79-4.78,1.6-6.89,2.42l-15.41,15.41c0.4,0.89,1.01,1.76,1.83,2.63L42.87,410.13z"/>
	<path class="st0" d="M259.88,388.12c-1.51,0.02-3.02,0.04-4.52,0.06l-72.1,72.1c1.4,0.08,2.81,0.16,4.23,0.24L259.88,388.12z"/>
	<path class="st0" d="M319.59,388.41c-1.46-0.03-2.91-0.06-4.38-0.09l-74.24,74.24c1.45,0.03,2.91,0.06,4.38,0.09L319.59,388.41z"/>
	<path class="st0" d="M229.26,388.74c-1.54,0.04-3.07,0.09-4.61,0.14l-69.48,69.48c1.37,0.11,2.76,0.22,4.14,0.32L229.26,388.74z"/>
	<path class="st0" d="M304.84,388.16c-1.47-0.02-2.94-0.04-4.41-0.05l-74.07,74.07c1.44,0.04,2.89,0.09,4.34,0.13L304.84,388.16z"/>
	<path class="st0" d="M289.98,388.02c-1.48-0.01-2.96-0.01-4.45-0.02l-73.66,73.66c1.43,0.06,2.86,0.11,4.3,0.17L289.98,388.02z"/>
	<path class="st0" d="M274.99,388.01c-1.5,0-2.99,0.01-4.49,0.02l-73.01,73.01c1.41,0.07,2.84,0.13,4.27,0.2L274.99,388.01z"/>
	<path class="st0" d="M198.07,389.93c-1.57,0.08-3.14,0.15-4.7,0.23l-65.68,65.68c1.34,0.14,2.69,0.28,4.05,0.41L198.07,389.93z"/>
	<path class="st0" d="M81.71,401.29c-1.84,0.31-3.65,0.63-5.41,0.95l-37.32,37.32c1.07,0.38,2.18,0.76,3.33,1.13L81.71,401.29z"/>
	<path class="st0" d="M99.44,398.56c-1.76,0.25-3.5,0.49-5.21,0.75l-43.78,43.78c1.15,0.31,2.33,0.62,3.54,0.93L99.44,398.56z"/>
	<path class="st0" d="M116.63,396.37c-1.71,0.2-3.4,0.4-5.07,0.61l-49.04,49.04c1.2,0.26,2.43,0.53,3.68,0.79L116.63,396.37z"/>
	<path class="st0" d="M63.16,404.84c-1.98,0.43-3.91,0.87-5.77,1.31l-28.87,28.87c0.92,0.5,1.91,1,2.97,1.5L63.16,404.84z"/>
	<path class="st0" d="M133.43,394.57c-1.67,0.16-3.33,0.33-4.97,0.5l-53.46,53.46c1.24,0.23,2.5,0.46,3.78,0.68L133.43,394.57z"/>
	<path class="st0" d="M166.18,391.82c-1.61,0.11-3.22,0.23-4.81,0.35l-60.48,60.48c1.3,0.18,2.61,0.35,3.94,0.53L166.18,391.82z"/>
	<path class="st0" d="M149.93,393.07c-1.64,0.14-3.27,0.28-4.88,0.42l-57.23,57.23c1.27,0.2,2.57,0.4,3.87,0.6L149.93,393.07z"/>
	<path class="st0" d="M182.22,390.78c-1.59,0.09-3.18,0.19-4.75,0.29l-63.27,63.27c1.32,0.16,2.66,0.31,4,0.47L182.22,390.78z"/>
	<path class="st0" d="M213.74,389.26c-1.55,0.06-3.11,0.12-4.65,0.18l-67.74,67.74c1.36,0.12,2.72,0.25,4.1,0.37L213.74,389.26z"/>
	<path class="st0" d="M510.4,407.6c-1.16-0.3-2.35-0.61-3.56-0.91l-45.98,45.98c1.76-0.24,3.49-0.48,5.2-0.73L510.4,407.6z"/>
	<path class="st0" d="M498.28,404.72c-1.21-0.26-2.44-0.52-3.69-0.77l-50.87,50.87c1.7-0.2,3.39-0.39,5.06-0.6L498.28,404.72z"/>
	<path class="st0" d="M485.76,402.24c-1.25-0.23-2.51-0.45-3.79-0.67l-55.02,55.02c1.67-0.16,3.32-0.33,4.96-0.49L485.76,402.24z"/>
	<path class="st0" d="M459.81,398.19c-1.3-0.18-2.61-0.35-3.94-0.52l-61.63,61.63c1.61-0.11,3.21-0.23,4.81-0.34L459.81,398.19z"/>
	<path class="st0" d="M472.91,400.09c-1.28-0.2-2.57-0.4-3.87-0.59l-58.57,58.57c1.64-0.13,3.26-0.27,4.88-0.41L472.91,400.09z"/>
	<path class="st0" d="M334.22,388.78c-1.44-0.04-2.89-0.08-4.34-0.12l-74.16,74.16c1.47,0.02,2.93,0.04,4.41,0.06L334.22,388.78z"/>
	<path class="st0" d="M521.94,411.06c-1.08-0.37-2.2-0.74-3.36-1.11l-40.06,40.06c1.84-0.31,3.63-0.62,5.39-0.93L521.94,411.06z"/>
	<path class="st0" d="M532.53,415.47c-0.94-0.49-1.95-0.97-3.02-1.45l-32.54,32.54c1.97-0.42,3.88-0.84,5.73-1.27L532.53,415.47z"/>
	<path class="st0" d="M540.91,422.09c-0.51-0.81-1.19-1.62-2.05-2.41l-21.85,21.85c2.38-0.72,4.6-1.45,6.66-2.2L540.91,422.09z"/>
	<path class="st0" d="M363.1,389.9c-1.42-0.07-2.84-0.13-4.27-0.2l-73.3,73.3c1.5,0,2.99-0.01,4.48-0.02L363.1,389.9z"/>
	<path class="st0" d="M377.36,390.64c-1.4-0.08-2.82-0.16-4.23-0.23l-72.49,72.49c1.51-0.02,3.02-0.04,4.52-0.06L377.36,390.64z"/>
	<path class="st0" d="M348.72,389.28c-1.43-0.06-2.86-0.11-4.3-0.16l-73.85,73.85c1.48,0.01,2.96,0.02,4.44,0.02L348.72,389.28z"/>
	<path class="st0" d="M391.48,391.52c-1.39-0.09-2.78-0.19-4.19-0.28l-71.42,71.42c1.52-0.03,3.04-0.06,4.56-0.09L391.48,391.52z"/>
	<path class="st0" d="M405.47,392.53c-1.37-0.11-2.76-0.21-4.15-0.31l-70.09,70.09c1.54-0.04,3.07-0.09,4.6-0.14L405.47,392.53z"/>
	<path class="st0" d="M446.5,396.5c-1.32-0.16-2.66-0.31-4-0.46l-64.27,64.27c1.59-0.09,3.17-0.18,4.74-0.28L446.5,396.5z"/>
	<path class="st0" d="M432.99,395.01c-1.34-0.14-2.7-0.27-4.06-0.41l-66.53,66.53c1.57-0.07,3.14-0.15,4.69-0.23L432.99,395.01z"/>
	<path class="st0" d="M419.3,393.7c-1.36-0.12-2.73-0.24-4.1-0.36l-68.47,68.47c1.55-0.06,3.1-0.12,4.65-0.18L419.3,393.7z"/>
</g>
<circle class="st0" cx="218.4" cy="288.03" r="113.89"/>
<path class="st1" d="M345.08,277.75c-2.16-24.43-8.52-47.82-25.87-66.45c-0.74-0.8-1.47-1.54-2.19-2.23
	c-14.07-18.29-32.79-32.6-54.18-41.24c-2.33-1.16-5.01-2.25-8.14-3.25c-2.44-0.78-4.95-1.37-7.48-1.89
	c-17.84-4.6-37.05-5.41-56.71-1.41c-46.67,9.49-80.89,41.39-94.52,83.7c-7.78,21.09-10.06,44.6-5.14,68.77
	c7.01,34.51,26.3,62.19,52.97,79.8c23.39,16.18,52.33,24.65,82.69,21.97c19.99-1.77,39.28-6.36,55.84-17.47
	C323.49,374.37,349.52,327.98,345.08,277.75z M321.54,310.43c-0.59,2.64-1.23,5.29-2.01,7.97c-6.53,22.45-21.22,41.49-39.99,54.92
	c-1.7,1.02-3.39,2.09-5.06,3.23c-1.47,1.01-2.95,1.95-4.43,2.87c-19.38,11.2-41.96,16.77-64.05,14.75c-6.46-0.74-13.02-2.05-19.7-4
	c-1.25-0.36-2.48-0.78-3.71-1.2c-4.53-1.62-8.81-3.46-12.92-5.44c-29.3-14.93-50.52-44.29-57.28-76.31
	c-1.39-8.84-1.89-18.22-1.42-28.13c2.14-44.87,44.66-89.56,88.96-96.07c11.66-1.71,23-1.6,34.23-0.52
	c41.85,6.67,81.42,46.58,87.51,88.07C323.67,284.19,323.16,297.37,321.54,310.43z"/>
<circle class="st2" cx="134.98" cy="206.59" r="71.42"/>
<path class="st1" d="M221.76,200.9c-1.46-16.54-5.77-32.38-17.52-44.99c-0.5-0.54-0.99-1.04-1.48-1.51
	c-9.53-12.38-22.2-22.07-36.68-27.92c-1.58-0.79-3.39-1.52-5.51-2.2c-1.65-0.53-3.35-0.93-5.07-1.28
	c-12.08-3.12-25.09-3.66-38.4-0.96c-31.6,6.42-54.76,28.03-63.99,56.67c-5.27,14.28-6.81,30.2-3.48,46.56
	c4.75,23.37,17.81,42.11,35.86,54.03c15.83,10.96,35.43,16.69,55.99,14.87c13.53-1.2,26.59-4.3,37.81-11.83
	C207.14,266.31,224.76,234.91,221.76,200.9z M198.13,197.08c1.21,8.21,0.9,16.17-0.07,24.05c-0.35,1.59-0.75,3.19-1.22,4.81
	c-3.94,13.55-12.81,25.04-24.13,33.15c-1.03,0.62-2.04,1.26-3.05,1.95c-0.89,0.61-1.78,1.18-2.67,1.73
	c-11.69,6.76-25.32,10.12-38.65,8.9c-3.9-0.45-7.85-1.24-11.89-2.41c-0.76-0.22-1.5-0.47-2.24-0.72c-2.73-0.98-5.32-2.09-7.8-3.29
	c-17.68-9.01-30.49-26.73-34.57-46.05c-0.84-5.34-1.14-11-0.86-16.97c1.29-27.08,26.95-54.05,53.69-57.98
	c7.04-1.03,13.88-0.97,20.65-0.31C170.57,147.95,194.45,172.04,198.13,197.08z"/>
</svg>
