<?xml version="1.0" encoding="utf-8"?>
<!-- Generator: Adobe Illustrator 24.2.1, SVG Export Plug-In . SVG Version: 6.00 Build 0)  -->
<svg version="1.1" id="Layer_1" xmlns="http://www.w3.org/2000/svg" xmlns:xlink="http://www.w3.org/1999/xlink" x="0px" y="0px"
	 viewBox="0 0 545 605" style="enable-background:new 0 0 545 605;" xml:space="preserve">
<style type="text/css">
	.st0{fill:#C3A6D1;}
	.st1{fill:#544664;}
	.st2{fill:#FAF7EF;}
	.st3{fill:#FDC193;}
	.st4{fill:#97755A;}
</style>
<g>
	<path class="st0" d="M394.77,495.86c1.27-0.91,2.54-1.83,3.79-2.74l-35.64-188.88c-1.32,0.57-2.65,1.15-3.98,1.74L394.77,495.86z"
		/>
	<path class="st0" d="M538.7,337.69c1.06-3.05,1.93-6.04,2.62-8.94l-7.74-41.04c-1.55-1.64-3.27-3.15-5.16-4.52L538.7,337.69z"/>
	<path class="st0" d="M381.99,504.85c1.28-0.88,2.55-1.76,3.81-2.64l-36.23-191.99c-1.32,0.61-2.64,1.23-3.96,1.85L381.99,504.85z"
		/>
	<path class="st0" d="M330.22,537.49c1.29-0.74,2.59-1.49,3.89-2.25L296.8,337.55c-1.29,0.74-2.59,1.5-3.89,2.25L330.22,537.49z"/>
	<path class="st0" d="M407.49,486.51c1.27-0.95,2.52-1.91,3.77-2.86l-34.91-185.02c-1.33,0.54-2.66,1.08-4,1.63L407.49,486.51z"/>
	<path class="st0" d="M343.25,529.81c1.29-0.78,2.58-1.55,3.87-2.34L309.9,330.23c-1.3,0.71-2.6,1.43-3.9,2.15L343.25,529.81z"/>
	<path class="st0" d="M356.23,521.81c1.28-0.81,2.57-1.62,3.85-2.44l-37.01-196.15c-1.31,0.68-2.61,1.35-3.92,2.04L356.23,521.81z"
		/>
	<path class="st0" d="M369.14,513.5c1.28-0.85,2.56-1.69,3.83-2.54l-36.69-194.41c-1.31,0.64-2.63,1.3-3.94,1.96L369.14,513.5z"/>
	<path class="st0" d="M432.7,466.62c1.25-1.04,2.49-2.07,3.72-3.11l-33-174.9c-1.34,0.45-2.69,0.91-4.05,1.38L432.7,466.62z"/>
	<path class="st0" d="M517.33,377.93c1.16-1.68,2.28-3.35,3.36-5.01l-18.75-99.39c-1.44-0.2-2.91-0.38-4.41-0.53L517.33,377.93z"/>
	<path class="st0" d="M505.8,393.54c1.18-1.5,2.34-2.99,3.47-4.47l-22-116.58c-1.41-0.01-2.85-0.01-4.31,0.02L505.8,393.54z"/>
	<path class="st0" d="M493.99,407.72c1.2-1.37,2.38-2.74,3.54-4.1l-24.64-130.58c-1.4,0.11-2.81,0.25-4.24,0.39L493.99,407.72z"/>
	<path class="st0" d="M528.45,360.12c1.12-2.01,2.19-4,3.18-5.97l-14.51-76.89c-1.48-0.55-3.01-1.05-4.59-1.51L528.45,360.12z"/>
	<path class="st0" d="M481.99,420.88c1.21-1.28,2.41-2.55,3.59-3.82L458.72,274.7c-1.38,0.21-2.78,0.43-4.18,0.67L481.99,420.88z"/>
	<path class="st0" d="M457.57,444.91c1.23-1.14,2.46-2.27,3.67-3.41l-30.39-161.04c-1.36,0.35-2.73,0.71-4.11,1.08L457.57,444.91z"
		/>
	<path class="st0" d="M469.84,433.23c1.22-1.2,2.44-2.4,3.63-3.6l-28.76-152.41c-1.37,0.28-2.75,0.59-4.14,0.9L469.84,433.23z"/>
	<path class="st0" d="M445.18,456.01c1.24-1.08,2.47-2.17,3.7-3.25l-31.79-168.49c-1.35,0.4-2.71,0.82-4.08,1.24L445.18,456.01z"/>
	<path class="st0" d="M420.13,476.77c1.26-0.99,2.51-1.98,3.75-2.97l-34.04-180.39c-1.34,0.5-2.68,0.99-4.03,1.51L420.13,476.77z"/>
	<path class="st0" d="M139.9,603.3c1.41,0,2.85-0.03,4.3-0.07l-23.1-122.44c-1.18,1.48-2.34,2.96-3.47,4.43L139.9,603.3z"/>
	<path class="st0" d="M154.25,602.62c1.39-0.12,2.8-0.27,4.23-0.42l-25.56-135.47c-1.2,1.36-2.38,2.72-3.54,4.07L154.25,602.62z"/>
	<path class="st0" d="M168.4,600.86c1.38-0.22,2.77-0.45,4.18-0.69l-27.65-146.52c-1.21,1.27-2.41,2.54-3.59,3.8L168.4,600.86z"/>
	<path class="st0" d="M196.25,594.96c1.36-0.35,2.73-0.72,4.1-1.09l-30.97-164.12c-1.24,1.13-2.46,2.27-3.67,3.4L196.25,594.96z"/>
	<path class="st0" d="M182.39,598.25c1.37-0.29,2.75-0.59,4.14-0.91L157.1,441.37c-1.23,1.2-2.43,2.39-3.63,3.58L182.39,598.25z"/>
	<path class="st0" d="M317.13,544.85c1.3-0.71,2.6-1.44,3.9-2.16L283.77,345.2c-1.29,0.77-2.58,1.55-3.87,2.34L317.13,544.85z"/>
	<path class="st0" d="M125.26,602.43c1.44,0.18,2.9,0.34,4.4,0.46l-20.13-106.67c-1.16,1.66-2.28,3.32-3.37,4.96L125.26,602.43z"/>
	<path class="st0" d="M110.14,599.06c1.47,0.5,3,0.96,4.57,1.37l-16.35-86.66c-1.13,1.97-2.19,3.93-3.2,5.86L110.14,599.06z"/>
	<path class="st0" d="M93.91,589.78c1.54,1.43,3.23,2.74,5.05,3.94l-10.98-58.2c-1.06,2.84-1.98,5.63-2.74,8.34L93.91,589.78z"/>
	<path class="st0" d="M290.76,558.59c1.31-0.65,2.62-1.29,3.94-1.96l-36.83-195.18c-1.28,0.84-2.56,1.68-3.83,2.53L290.76,558.59z"
		/>
	<path class="st0" d="M277.48,564.95c1.32-0.61,2.64-1.24,3.96-1.86l-36.43-193.03c-1.28,0.88-2.55,1.76-3.81,2.63L277.48,564.95z"
		/>
	<path class="st0" d="M303.98,551.88c1.31-0.68,2.61-1.37,3.92-2.06l-37.11-196.66c-1.28,0.81-2.57,1.61-3.85,2.43L303.98,551.88z"
		/>
	<path class="st0" d="M264.13,570.97c1.32-0.58,2.65-1.16,3.98-1.75l-35.89-190.19c-1.27,0.91-2.54,1.82-3.79,2.73L264.13,570.97z"
		/>
	<path class="st0" d="M250.72,576.62c1.33-0.54,2.66-1.09,4-1.65L219.5,388.34c-1.26,0.95-2.52,1.9-3.77,2.85L250.72,576.62z"/>
	<path class="st0" d="M210.01,591.1c1.35-0.41,2.71-0.82,4.07-1.25l-32.3-171.14c-1.24,1.08-2.48,2.15-3.7,3.23L210.01,591.1z"/>
	<path class="st0" d="M223.66,586.71c1.34-0.46,2.69-0.92,4.05-1.4l-33.43-177.17c-1.25,1.03-2.49,2.06-3.73,3.09L223.66,586.71z"/>
	<path class="st0" d="M237.23,581.87c1.34-0.5,2.68-1,4.02-1.52l-34.4-182.32c-1.26,0.99-2.51,1.98-3.75,2.97L237.23,581.87z"/>
</g>
<g>
	<path class="st1" d="M157.74,158.78c-4.85,2.23-9.55,2.68-13.77-0.72c-3.9-3.15-5.94-7.32-5.08-12.52
		c0.13-0.78,0.38-1.57,0.76-2.26c0.85-1.55,2.29-1.97,3.92-1.54c1.57,0.41,2.11,1.65,2.02,3.15c-0.1,1.85-0.33,3.69,0.96,5.29
		c1.74,2.16,3.93,1.95,4.97-0.61c6.76-16.61,18.23-29.23,32.89-39.25c8.07-5.52,15.73-11.68,24.86-15.49c2-0.83,3.95-1.8,5.99-2.5
		c1.92-0.66,2.28-1.44,1.08-3.2c-4.6-6.72-5.69-14.2-4.3-22.09c1.98-11.21,11.27-20.33,22.58-22.12c2.14-0.34,3.56-1.18,4.86-2.93
		c3.95-5.32,9.49-7.99,15.98-8.81c8.91-1.12,17.3,0.22,24.72,5.6c4.91,3.56,8.25,8.27,9.49,14.29c0.22,1.08,0.73,1.35,1.71,1.58
		c3.07,0.74,5.94,1.99,8.42,3.98c1.19,0.96,2.24,1.06,3.71,0.57c8.31-2.79,16.57-0.66,21.17,5.34c1.86,2.42,2.91,5.17,3.05,8.22
		c0.11,2.41-1.1,4.03-3.02,4.22c-1.98,0.19-3.38-1.11-3.79-3.51c-1.2-7.03-8.47-10.68-15-7.56c-0.84,0.4-0.97,0.76-0.61,1.64
		c3.09,7.62,2.38,14.96-2.09,21.8c-1.43,2.19-0.75,2.87,1.3,3.63c11.26,4.18,21.17,10.59,30.28,18.38
		c17.64,15.09,27.11,34.42,29.99,57.21c0.87,6.86,1.4,13.77,0.81,20.65c-0.45,5.26-1.06,10.52-2,15.75
		c-0.54,2.99-0.55,6.05-1.95,8.87c-0.39,0.79,0.69,1.21,1.15,1.59c6.71,5.52,8.61,12.98,8.15,21.14
		c-1.04,18.4-15.93,32.83-34.41,30.59c-1.77-0.21-1.83,0.79-2.11,1.83c-1.45,5.43-3.02,10.82-5.53,15.87
		c-7.6,15.31-19,27.32-32.72,37.21c-2.07,1.49-2.62,2.79-2.07,5.28c1.37,6.18,2.36,12.44,4.7,18.38c1.97,4.98,5.11,8.29,10.07,10.88
		c24.82,12.99,49.29,26.6,69.88,46.05c12.96,12.25,24.4,25.71,33.05,41.4c1.44,2.6,2.66,5.3,3.72,8.08
		c2.92,7.66,1.5,14.61-3.65,20.78c-5.51,6.6-12.75,10.97-20.33,14.71c-17.03,8.41-35.2,13.39-53.73,17.06
		c-31.14,6.17-62.63,8.32-94.33,7.15c-16.92-0.62-33.83-1.69-50.58-4.21c-22.21-3.34-44.15-7.93-64.79-17.22
		c-7.85-3.53-15.42-7.6-21.71-13.62c-8.65-8.28-10.19-16.62-5.06-27.44c5.66-11.92,13.51-22.36,22.13-32.24
		c17.21-19.75,38.06-34.77,61.13-46.91c10.07-5.3,19.74-11.37,30.14-16.07c2.02-0.91,3.21-2.89,4.28-4.77
		c4.2-7.35,6.23-15.42,7.62-23.69c0.25-1.47-0.72-2.02-1.6-2.66c-5.61-4.05-10.88-8.47-15.65-13.5
		c-10.87-11.44-18.06-24.85-21.66-40.18c-0.39-1.65-0.94-2.21-2.71-2c-12.16,1.38-21.51-3.71-28.24-13.41
		c-6.9-9.94-7.91-20.78-2.94-31.99c0.96-2.17,2.44-3.95,4.05-5.64c0.84-0.88,1.16-1.73,0.89-3c-3.61-17.05-4.13-34.19-1.29-51.41
		c0.12-0.71,0.19-1.43,0.27-2.15C157.76,159.49,157.74,159.25,157.74,158.78z M185.68,178.29c-0.49,0.26-1.05,0.45-1.47,0.8
		c-7.96,6.57-14.85,14.04-19.83,23.16c-0.29,0.53-0.36,1.03-0.28,1.61c0.29,1.96,0.71,3.93,0.8,5.9c0.09,1.83,0.81,1.82,2.3,1.45
		c4.11-1.02,8.3-1.56,12.53-1.56c1.53,0,1.99-0.44,2.14-2.02c0.44-4.91,1.11-9.8,1.75-14.69
		C184.27,188.05,184.99,183.17,185.68,178.29c0.03-0.07,0.07-0.14,0.11-0.2C185.76,178.16,185.72,178.23,185.68,178.29z
		 M331.11,152.77c-0.07-0.04-0.14-0.07-0.21-0.11C330.97,152.7,331.03,152.74,331.11,152.77c1.34,5.42,2.67,10.83,4.06,16.24
		c0.13,0.5,0.49,1.08,0.92,1.35c3.01,1.92,5.74,4.21,8.5,6.46c3.54,2.89,6.15,6.57,8.94,10.1c1.67,2.12,3.04,4.42,4.33,7.22
		c1.19-5.21,0.91-10.1,0.53-14.88c-0.2-2.5,0.27-5.17-1.31-7.66c-4.01-6.32-9.45-11.03-15.84-14.66
		C338.06,155.14,334.89,153.14,331.11,152.77z M255.03,505.11c15.02,0.1,27.98-0.74,40.93-1.84c1.6-0.14,2.29-0.72,2.72-2.31
		c9.68-35.55,12.4-71.63,8.42-108.23c-0.3-2.71-0.27-2.67-2.73-1.56c-17.31,7.86-35.43,11.03-54.37,9.21
		c-12.28-1.18-24.23-3.8-35.49-9.02c-1.88-0.87-2.45-0.27-2.78,1.53c-0.68,3.7-1.54,7.38-2.24,11.08
		c-3.08,16.18-5.09,32.45-4.32,48.99c0.75,15.98,2.93,31.74,6.63,47.31c0.37,1.57,0.89,2.44,2.75,2.61
		C228.69,504.19,242.84,505.16,255.03,505.11z M236.54,122.86c-4.58-0.02-9.2,1.44-13.53,3.88c-13.31,7.48-21.56,18.88-25.69,33.42
		c-4.16,14.62-6.26,29.62-8.32,44.63c-0.8,5.85-0.78,5.82,5.03,7.13c1.04,0.23,1.58,0.1,2.04-0.94c2.48-5.67,7.3-8.23,13.04-9
		c9.75-1.31,19.53-0.99,29.23,0.66c3.71,0.63,7.49,1.45,10.29,4.25c1.26,1.26,2.41,1.42,4.07,1.07c5.71-1.21,11.45-1.49,17.11,0.3
		c1.14,0.36,1.78,0.07,2.51-0.69c2.13-2.19,4.78-3.47,7.7-4.24c3.58-0.93,7.25-1.43,10.92-1.64c8.24-0.48,16.52-1.07,24.69,0.71
		c4.99,1.09,9.11,3.52,11.28,8.47c0.21,0.48,0.3,1.19,1.02,1.19c1.79,0,3.58-0.34,5.11-1.17c1.3-0.7,0.57-2.23,0.4-3.31
		c-2.02-12.82-3-25.8-5.74-38.51c-2.54-11.76-5.89-23.18-14.12-32.49c-9.05-10.25-20.19-15.31-33.96-13.63
		c-3.17,0.39-6.3,1.21-9.38,2.05c-5.85,1.6-11.68,1.63-17.62,0.55C247.42,124.59,242.31,123.08,236.54,122.86z M254.09,219.3
		c0.14,1.39-0.29,3.28-0.61,5.17c-2.03,11.92-8.3,18.54-19.77,20.58c-6.68,1.19-13.39,1.05-20.09-0.18
		c-8.98-1.65-14.62-6.85-17.08-15.57c-0.52-1.85-1.1-3.73-1.21-5.63c-0.16-2.87-1.52-4.29-4.24-4.88c-2.54-0.55-2.62-0.58-2.42,1.96
		c0.8,10.39,1.8,20.76,3.3,31.07c1.28,8.81,2.51,17.63,5.68,26.02c6.82,18.04,18.91,31.76,35.14,41.76
		c15.57,9.59,31.98,11.36,48.83,3.2c10.34-5.01,18.78-12.54,26.58-20.79c10.07-10.64,17.09-22.89,20.1-37.43
		c2.18-10.54,3.44-21.19,4.69-31.85c0.49-4.21,0.64-8.47,0.88-12.71c0.04-0.65,0.46-1.7-1.02-1.61c-3.16,0.2-4.4,1.25-4.94,4.4
		c-0.08,0.47-0.13,0.95-0.2,1.43c-1.87,12.8-7.89,18.99-20.72,20.98c-7.19,1.11-14.42,0.97-21.52-0.65
		c-7.27-1.66-12.5-5.93-15.2-13.06c-1.73-4.56-2.51-9.29-2.53-14.12c-0.01-1.84-0.69-2.71-2.37-2.92c-2.38-0.3-4.74-0.66-7.18-0.26
		C254.16,214.89,254.14,214.81,254.09,219.3z M326.77,499.22c0.47,0.11,0.71,0.25,0.92,0.2c6.7-1.32,13.49-2.36,20.08-4.09
		c6.27-1.64,12.53-3.36,18.71-5.35c7.81-2.51,15.41-5.46,22.67-9.27c5.72-3,11.4-6.1,15.88-10.91c2.58-2.77,4.63-5.73,4.67-9.85
		c0.04-3.54-1.34-6.52-2.77-9.51c-6.03-12.62-14.47-23.58-23.9-33.8c-6.77-7.34-14.2-13.99-22.04-20.19
		c-6.13-4.84-12.76-8.93-19.28-13.21c-0.34-0.23-0.74-0.42-1.11-0.16c-0.43,0.31-0.15,0.72,0.02,1.07c1.27,2.66,2.01,5.51,3.05,8.26
		c1.43,3.77,0.45,8.02-2.58,10.59c-1.03,0.88-2.35,1.47-3.05,2.59c3.85,1.71,7.51,3.47,8.32,7.94c0.45,2.5,0.22,5.11-0.04,7.67
		c-0.62,6.1-1.29,12.19-2.11,18.27c-0.63,4.66-1.34,9.3-2.28,13.88c-1.3,6.28-2.9,12.51-4.75,18.65
		C334.41,481.25,331.14,490.31,326.77,499.22z M178.72,382.01c-0.53,0.1-0.86,0.09-1.11,0.22c-11.81,6.28-22.54,14.12-32.45,23.02
		c-7.07,6.35-13.77,13.11-19.89,20.44c-7.02,8.4-13.28,17.29-17.81,27.24c-3.25,7.14-3.01,11.52,2.92,17.79
		c3.94,4.16,8.7,7.18,13.63,9.95c7.65,4.29,15.8,7.42,24.13,10.06c4.84,1.53,9.68,3.03,14.64,4.2c3.86,0.91,7.76,1.79,11.64,2.4
		c3.06,0.48,6.14,1.85,9.49,1.02c-1.28-2.96-2.57-5.82-3.59-8.81c-1.88-5.57-3.68-11.14-5.03-16.88c-0.98-4.17-1.86-8.35-2.71-12.55
		c-0.51-2.52-0.48-5.13-1.15-7.55c-0.98-3.58-1.18-7.28-1.43-10.84c-0.62-9.08-0.54-18.22-0.25-27.35c0.09-2.8,1.39-4.84,3.63-6.31
		c1.83-1.2,3.77-2.21,5.8-3.38c-0.81-0.58-1.52-1.08-2.22-1.59c-2.7-1.96-4.02-4.52-3.26-7.88c0.32-1.39,0.85-2.74,1.37-4.08
		C176.25,388.16,177.45,385.2,178.72,382.01z M287.09,328.51c-0.21-0.03-0.3-0.08-0.37-0.05c-0.51,0.22-1.03,0.45-1.53,0.7
		c-16.75,8.33-33.48,7.95-50.13-0.23c-1.47-0.72-1.46-0.19-1.72,0.96c-2.35,10.27-5.08,20.39-12.28,28.59
		c-0.35,0.4-0.52,0.99-0.64,1.53c-1.61,6.87-3.72,13.6-5.83,20.32c-0.71,2.26-0.27,3.2,1.87,4.15c18.89,8.36,38.52,11.18,58.94,7.99
		c9.54-1.49,18.7-4.38,27.51-8.38c1.71-0.78,2.52-1.58,1.89-3.63c-1.04-3.45-1.7-7-2.66-10.48c-1.54-5.62-2.85-11.34-7.01-15.86
		c-1.05-1.14-1.61-2.76-2.27-4.21C289.76,343.08,288.21,335.83,287.09,328.51z M337.89,396.46c-0.7-3.42-2.06-6.31-3.37-9.21
		c-1.9-4.2-3.53-8.77-7.13-11.74c-5.22-4.3-11.22-7.57-17.2-10.76c-0.44-0.24-1.01-0.75-1.53-0.27c-0.45,0.42-0.26,1.09-0.11,1.61
		c1.68,5.81,2.92,11.71,3.94,17.68c1.33,7.72,2.69,15.42,2.74,23.29c0.01,2.15,0.37,4.3,0.54,6.45c0.6,7.45,0.65,14.93,0.1,22.35
		c-0.67,8.99-1.26,18-2.5,26.96c-0.99,7.11-1.97,14.23-3.27,21.28c-1.02,5.51-2.55,10.96-4.41,16.28c-0.45,1.29-0.11,2.33,1.62,1.83
		c2.26-0.66,4.57-0.73,6.89-0.84c2.66-0.13,4.62-1.21,5.73-3.91c2.44-5.94,5.3-11.7,7.36-17.8c2.43-7.17,4.63-14.4,6.28-21.79
		c1.61-7.24,3.21-14.48,4.02-21.89c0.7-6.43,1.75-12.82,1.85-19.32c0.03-2.13-0.74-3.5-2.44-4.53c-1.98-1.2-3.99-2.33-5.94-3.57
		c-3.06-1.95-3.16-5.47-0.16-7.42c1.67-1.08,3.54-1.85,5.25-2.89C336.91,397.79,338,397.45,337.89,396.46z M204.04,501.88
		c1.37,0.18,1.63-0.03,1.19-1.27c-2.87-8.15-4.15-16.67-5.35-25.14c-1.01-7.11-1.34-14.33-1.55-21.52
		c-0.21-7.44-0.07-14.89,0.26-22.35c0.39-8.73,1.83-17.31,3.26-25.86c1.15-6.87,2.68-13.71,4.38-20.5
		c1.67-6.71,3.65-13.32,5.46-19.97c0.14-0.5,0.73-1.07,0.05-1.48c-0.49-0.3-1.06-0.02-1.58,0.26c-3.55,1.95-7.18,3.76-10.65,5.85
		c-3.32,2-7.17,3.54-9.39,6.83c-3.86,5.73-6.72,12.02-8.99,18.56c-0.64,1.85,0.07,2.94,1.72,3.59c1.5,0.59,2.93,1.3,4.21,2.26
		c2.69,2.01,2.62,4.72-0.05,6.73c-2.3,1.73-5.08,2.55-7.54,3.97c-2.02,1.17-3.08,2.54-3.11,5.11c-0.11,12.62,0.31,25.17,2.41,37.66
		c0.34,2.03,0.8,4.05,1.15,6.08c0.63,3.71,1.36,7.41,2.28,11.06c1.1,4.34,2.37,8.64,3.86,12.89c1.77,5.05,3.35,10.16,5.87,14.91
		c0.29,0.54,0.43,1.24,1.23,1.32C196.79,501.18,200.41,501.53,204.04,501.88z M260.43,40.09c-3.54-0.31-7.35,0.25-10.9,2.26
		c-3.13,1.77-5.58,4.18-6.47,7.69c-1.29,5.06-0.5,9.96,1.63,14.72c2.61,5.84,6.97,10.5,10.35,15.8c1.88,2.96,4,3.65,7.1,3.42
		c1.41-0.11,2.15-0.45,2.59-1.86c0.7-2.29,1.61-4.5,2.79-6.62c3.33-6.03,7.93-10.8,13.86-14.25c1.6-0.93,2.21-2.22,2.05-3.98
		c-0.35-3.96-1.8-7.47-4.51-10.37C274.04,41.69,267.86,39.79,260.43,40.09z M289.17,212.2c-2.09,0.67-4.01,1.45-4.35-1.57
		c-0.06-0.51-0.58-0.4-0.98-0.4c-5.69-0.01-9.37,4.13-8.75,9.81c0.1,0.88,0.11,1.76,0.19,2.64c0.76,8.81,4.92,13.87,12.7,15.24
		c6.69,1.18,13.41,1.13,20.1,0.06c3.21-0.51,6.27-1.51,8.35-4.28c4.02-5.33,5.23-11.44,4.64-17.94c-0.27-2.97-2.32-4.69-5-5.57
		c-1.51-0.5-3.13-0.66-4.71-0.96c-0.93-0.18-1.51-0.21-1.18,1.14c0.45,1.84-0.59,2.61-2.37,2.72c-2.06,0.13-3.73-0.61-5.27-1.92
		c-1.59-1.36-3.28-2.58-6-1.81c4.4,1.08,5.23,4.15,5.16,7.79c-0.03,1.68,0.11,3.38-0.06,5.05c-0.36,3.5-3.24,5.83-6.83,5.7
		c-3.19-0.12-5.49-2.49-5.62-6.03C289.08,218.73,289.17,215.6,289.17,212.2z M221.98,209.68c-1.02-0.25-1.64,0.43-2.39,0.86
		c-1.72,0.99-3.25,2.39-5.37,2.53c-1.86,0.12-2.98-0.51-2.72-2.6c0.06-0.5,0.49-1.07-0.47-1.28c-3.6-0.79-8.75,3.18-8.94,7
		c-0.15,3.05,0.07,6.08,0.71,9.08c1.79,8.37,5.14,11.7,13.56,12.94c5.09,0.75,10.23,0.54,15.35-0.02
		c7.8-0.85,12.54-5.07,14.32-12.73c0.51-2.2,0.79-4.41,0.92-6.65c0.23-4.19-2.76-7.83-6.92-8.38c-0.42-0.06-1.02-0.65-1.06,0.54
		c-0.05,1.74-1.41,1.95-2.78,1.69c-1.21-0.23-2.38-0.67-3.66-1.05c0.44,3.92,0.61,7.68-0.09,11.39c-0.51,2.7-2.85,4.51-5.67,4.75
		c-2.66,0.23-5.44-1.01-6.08-3.37C219.36,219.44,219.19,214.46,221.98,209.68z M182.32,231.56c-0.36-4.44-0.7-8.64-1.04-12.83
		c-0.07-0.92-0.73-1.18-1.48-1.29c-11.56-1.65-20.24,3.41-21.77,14.94c-1.98,14.88,9.94,28.39,24.9,27.88
		c2.97-0.1,3.09-0.24,2.65-3.27c-0.58-3.96-1.25-7.91-1.77-11.87c-0.76-5.8-7.08-10.71-12.89-9.8c-2.16,0.34-3.64-0.2-4.23-2.41
		c-0.51-1.92,0.62-3.75,2.76-4.36c1.65-0.47,3.33-0.25,5,0.02C177.18,229,179.52,230.47,182.32,231.56z M340.25,231.1
		c2.2-0.82,4.04-1.63,5.95-2.19c2.08-0.62,4.23-1.02,6.34-0.01c1.49,0.71,2.55,1.73,2.19,3.57c-0.35,1.76-1.44,2.88-3.24,3.07
		c-1.19,0.12-2.4-0.04-3.6-0.03c-3.3,0.02-8.4,4-8.96,7.25c-0.9,5.21-1.58,10.45-2.39,15.67c-0.2,1.27,0.3,1.65,1.51,1.81
		c3.52,0.47,6.89-0.15,10.1-1.47c11.05-4.54,17.58-16.32,15.56-28.08c-0.84-4.88-3.07-8.91-7.75-11.22
		c-4.08-2.02-8.42-2.33-12.87-2.09c-1.11,0.06-1.63,0.52-1.73,1.55C340.98,222.92,340.63,226.89,340.25,231.1z M218.43,72.71
		c0.17,1.34,0.31,2.53,0.47,3.71c0.62,4.78,2.77,8.63,6.88,11.29c0.49,0.32,0.94,0.57,1.55,0.41c6.63-1.81,13.42-2.78,20.22-3.68
		c1.42-0.19,1.13-0.71,0.53-1.52c-1.18-1.61-2.28-3.29-3.51-4.86c-5.12-6.53-8.97-13.6-9.77-22.05c-0.1-1.1,0.71-2.63-0.7-3.24
		c-1.22-0.53-2.48,0.32-3.65,0.83C222.03,57.25,219.4,64.54,218.43,72.71z M297.2,96.71c-1.68-0.46-2.68-0.71-3.67-1.02
		c-9.83-3.09-19.93-4.33-30.19-4.57c-1.7-0.04-2.35,0.42-1.92,2.22c1.84,7.63,2.58,15.41,2.68,23.24c0.03,2.1,1.02,2.27,2.56,1.88
		c2.56-0.64,5.1-1.34,7.63-2.06c0.74-0.21,1.56-0.29,1.88-1.27c1.17-3.63,3.91-6.18,6.38-8.89
		C286.44,101.98,291.34,99.17,297.2,96.71z M220.44,97.58c11.08,2.91,18.54,9.52,24.44,18.13c0.59,0.86,1.41,1.06,2.22,1.24
		c2.72,0.59,5.47,1.06,8.21,1.59c1.76,0.34,2.44-0.5,2.08-2.12c-0.5-2.22-0.38-4.45-0.44-6.68c-0.14-5.2-0.89-10.32-2.37-15.31
		c-1.05-3.57-1.43-3.7-5.08-3.27c-5.62,0.66-11.22,1.43-16.69,2.88C228.9,95.09,225.03,96.27,220.44,97.58z M300.31,76.16
		c0.03-3.92-0.95-6.65-2.66-9.16c-1.72-2.53-4.62-3.76-7.3-2.61c-8.25,3.54-14.51,9.19-17.96,17.66c-0.57,1.4-0.71,2.32,1.35,2.46
		c6.14,0.43,12.12,1.85,18.06,3.33c1.77,0.44,2.95,0.02,4.03-1.2C298.71,83.42,300.21,79.64,300.31,76.16z M164.5,163.6
		c1.28-0.43,1.86-1.34,2.53-2.08c5.6-6.19,12.38-11.12,20.3-13.1c6.38-1.6,9.76-5.13,12.59-10.39c1.99-3.7,2.16-3.82-2.13-4.02
		c-10.2-0.46-18.97,2.65-26.06,10.26C166.64,149.73,165.26,156.41,164.5,163.6z M163.05,191.85c0.83-0.3,1.06-0.93,1.39-1.42
		c5.77-8.56,13.01-15.52,22.26-20.23c1.01-0.51,1.12-1.33,1.3-2.11c0.98-4.12,2.12-8.18,3.45-12.2c0.2-0.62,0.89-1.37,0.1-1.96
		c-0.66-0.5-1.36,0.02-2.03,0.27c-9.11,3.48-16.51,9.28-22.66,16.74c-1.72,2.09-3.38,4.26-3.82,7.07
		C162.31,182.59,163.19,187.16,163.05,191.85z M323.92,111.72c-2.65-2.52-5.25-4.19-7.99-5.68c-5.8-3.14-11.63-5-18.2-2
		c-5.07,2.31-9.29,5.59-12.97,9.67c-0.35,0.38-0.64,1-0.61,1.49c0.04,0.59,0.73,0.47,1.18,0.48c6.57,0.11,12.76,1.86,18.77,4.35
		c0.75,0.31,1.27,0.32,1.96-0.18C311.38,116.05,317.11,113.12,323.92,111.72z M356.08,160.81c0-1.08,0.07-1.41-0.01-1.69
		c-1.73-6.07-3.54-12.1-6.34-17.8c-1.68-3.4-4.27-5.41-7.91-6.39c-6.06-1.64-12.12-1.5-18.24-0.47c-2.12,0.36-1.61,1.43-0.78,2.46
		c1.79,2.21,3.1,4.65,4.05,7.31c0.43,1.21,1.31,1.65,2.55,1.83c7.02,1.05,13.23,4.09,19.08,7.96
		C351.14,155.77,353.39,158.01,356.08,160.81z M336.38,178.11c0.78,5.76,1.54,10.93,2.17,16.11c0.56,4.64,1.56,9.25,1.21,13.96
		c-0.11,1.5,0.47,1.96,1.92,1.92c3.27-0.08,6.57-0.27,9.78,0.59c3.63,0.98,4.2,0.75,4.58-2.85c0.19-1.84,1.52-3.9,0.13-5.57
		c-2.64-3.15-4.46-6.81-6.82-10.13C345.74,187.04,341.19,182.84,336.38,178.11z M236.79,115.61c0.12-0.21,0.24-0.41,0.36-0.62
		c-1.14-1-2.26-2.01-3.42-2.98c-2.58-2.15-5.36-4.01-8.23-5.75c-9.56-5.79-21.59-4.05-28.95,4.24c0.23,0.46,0.67,0.34,1.05,0.37
		c8.29,0.54,16.03,2.67,22.69,7.88c1.17,0.91,2.24,0.58,3.35,0.1C227.84,117.02,232.21,115.9,236.79,115.61z M174.97,132.78
		c0.43-0.19,0.87-0.36,1.29-0.58c7.91-4.08,16.32-5.92,25.02-3.84c4.3,1.03,7.26,0.96,10.54-2.45c3.2-3.31,3.56-3.5-0.81-5.49
		c-0.29-0.13-0.59-0.25-0.88-0.37c-3.62-1.58-7.43-2.26-11.34-2.7c-3.57-0.41-7.12-0.36-10.33,1.12
		C182.17,121.38,177.8,126.36,174.97,132.78z M340.94,128.23c-0.5-1.82-1.78-2.86-2.76-4.03c-1.59-1.9-3.35-3.67-5.21-5.31
		c-2.19-1.94-4.79-1.15-7.33-0.81c-4.94,0.66-9.39,2.46-13.43,5.36c-0.89,0.64-1.03,1.2-0.05,1.81c1.53,0.94,2.62,2.35,3.86,3.59
		c0.78,0.78,1.65,1.05,2.62,0.72C325.9,127.09,333.26,126.57,340.94,128.23z"/>
	<path class="st2" d="M255.03,505.11c-12.19,0.05-26.34-0.92-40.48-2.24c-1.86-0.17-2.37-1.04-2.75-2.61
		c-3.7-15.56-5.88-31.33-6.63-47.31c-0.77-16.53,1.24-32.8,4.32-48.99c0.7-3.7,1.57-7.37,2.24-11.08c0.33-1.8,0.9-2.4,2.78-1.53
		c11.26,5.21,23.21,7.83,35.49,9.02c18.94,1.83,37.06-1.35,54.37-9.21c2.46-1.12,2.44-1.16,2.73,1.56
		c3.98,36.61,1.26,72.69-8.42,108.23c-0.43,1.58-1.12,2.17-2.72,2.31C283.01,504.37,270.05,505.21,255.03,505.11z"/>
	<path class="st3" d="M236.54,122.86c5.78,0.22,10.88,1.73,16.08,2.68c5.94,1.08,11.77,1.05,17.62-0.55
		c3.09-0.85,6.22-1.67,9.38-2.05c13.78-1.68,24.91,3.38,33.96,13.63c8.23,9.32,11.58,20.73,14.12,32.49
		c2.74,12.71,3.72,25.69,5.74,38.51c0.17,1.08,0.9,2.6-0.4,3.31c-1.53,0.83-3.32,1.17-5.11,1.17c-0.72,0-0.81-0.71-1.02-1.19
		c-2.17-4.94-6.29-7.38-11.28-8.47c-8.17-1.78-16.45-1.19-24.69-0.71c-3.67,0.21-7.34,0.71-10.92,1.64
		c-2.92,0.76-5.57,2.04-7.7,4.24c-0.73,0.76-1.37,1.05-2.51,0.69c-5.65-1.79-11.4-1.51-17.11-0.3c-1.66,0.35-2.81,0.19-4.07-1.07
		c-2.8-2.8-6.58-3.62-10.29-4.25c-9.7-1.65-19.48-1.97-29.23-0.66c-5.74,0.77-10.56,3.33-13.04,9c-0.45,1.04-1,1.18-2.04,0.94
		c-5.82-1.31-5.84-1.28-5.03-7.13c2.06-15.01,4.17-30.01,8.32-44.63c4.13-14.53,12.38-25.94,25.69-33.42
		C227.34,124.3,231.96,122.84,236.54,122.86z M298.66,180.61c-5.76-0.15-11.35,0.77-16.81,2.53c-1.9,0.61-3.83,1.23-5.32,2.68
		c-1.76,1.71-1.67,4.63,0.2,6.16c1.53,1.25,3.19,1.2,4.98,0.56c5.46-1.95,11.08-3.27,16.88-3.53c7.53-0.35,14.64,1.2,21.24,4.99
		c2.06,1.19,4.02,0.58,5.25-1.24c1.11-1.65,0.82-3.67-0.91-5.16c-0.96-0.83-2.07-1.52-3.2-2.12
		C314,181.75,306.44,180.65,298.66,180.61z M241.63,192.8c2.21,0.04,4.19-1.33,4.75-3.34c0.61-2.18-0.29-3.77-2.13-4.86
		c-0.82-0.48-1.72-0.88-2.62-1.17c-9.5-3.08-19.17-3.67-28.95-1.63c-4.67,0.97-9.06,2.76-13,5.47c-2.14,1.48-2.73,3.88-1.64,5.65
		c1.24,2,3.01,2.3,5.63,0.91c10.78-5.7,21.91-5.95,33.32-2.21C238.51,192.11,240,192.75,241.63,192.8z"/>
	<path class="st3" d="M254.09,219.3c0.05-4.49,0.06-4.41,4.1-5.08c2.44-0.41,4.8-0.04,7.18,0.26c1.68,0.21,2.36,1.09,2.37,2.92
		c0.01,4.83,0.8,9.57,2.53,14.12c2.7,7.13,7.93,11.4,15.2,13.06c7.1,1.62,14.33,1.76,21.52,0.65c12.83-1.99,18.85-8.18,20.72-20.98
		c0.07-0.48,0.12-0.95,0.2-1.43c0.53-3.15,1.78-4.2,4.94-4.4c1.48-0.09,1.06,0.96,1.02,1.61c-0.24,4.24-0.39,8.5-0.88,12.71
		c-1.24,10.66-2.5,21.31-4.69,31.85c-3.01,14.54-10.03,26.79-20.1,37.43c-7.81,8.25-16.24,15.78-26.58,20.79
		c-16.85,8.16-33.26,6.39-48.83-3.2c-16.23-9.99-28.32-23.72-35.14-41.76c-3.17-8.39-4.4-17.21-5.68-26.02
		c-1.5-10.32-2.5-20.68-3.3-31.07c-0.2-2.54-0.13-2.51,2.42-1.96c2.72,0.59,4.08,2.01,4.24,4.88c0.11,1.89,0.69,3.78,1.21,5.63
		c2.45,8.72,8.1,13.91,17.08,15.57c6.7,1.23,13.41,1.37,20.09,0.18c11.47-2.04,17.74-8.66,19.77-20.58
		C253.81,222.58,254.23,220.69,254.09,219.3z M260.45,285.77c13.03,0.1,23.02-7.53,26.9-20.56c0.32-1.07,0.29-2.48,0.98-3.15
		c1.03-0.99,2.08,0.55,3.22,0.72c2.06,0.29,3.9,0.23,4.92-1.9c1.08-2.23-0.13-3.73-1.9-4.8c-3.84-2.33-7.9-3.47-12.37-1.85
		c-8.58,3.09-17.47,4.03-26.51,3.44c-5.42-0.36-10.83-0.94-15.92-3.23c-3.59-1.62-7.2-1.05-10.66,0.7c-3.29,1.66-4.53,3.71-3.5,5.88
		c0.98,2.07,3.21,2.54,6.53,1.12c1.64-0.7,2.04-0.38,2.41,1.37C237.55,277.48,247.14,285.67,260.45,285.77z M260.34,253.32
		c3.19-0.25,6.26-0.72,8.99-2.41c2.24-1.39,3-3.34,2.03-5.19c-0.88-1.67-2.48-1.86-5.03-0.84c-3.83,1.54-7.69,2.15-11.55,0.01
		c-0.55-0.3-1.19-0.5-1.81-0.61c-2.49-0.45-4.01,1.02-3.75,3.54c0.18,1.69,1.16,2.75,2.6,3.47
		C254.53,252.64,257.45,253.04,260.34,253.32z"/>
	<path class="st0" d="M326.77,499.22c4.37-8.91,7.64-17.97,10.42-27.2c1.85-6.14,3.45-12.37,4.75-18.65
		c0.95-4.58,1.66-9.23,2.28-13.88c0.82-6.08,1.49-12.17,2.11-18.27c0.26-2.56,0.5-5.17,0.04-7.67c-0.81-4.47-4.47-6.23-8.32-7.94
		c0.7-1.12,2.02-1.72,3.05-2.59c3.03-2.57,4.01-6.82,2.58-10.59c-1.04-2.74-1.78-5.6-3.05-8.26c-0.17-0.35-0.44-0.76-0.02-1.07
		c0.36-0.26,0.76-0.07,1.11,0.16c6.51,4.28,13.15,8.37,19.28,13.21c7.84,6.19,15.26,12.85,22.04,20.19
		c9.43,10.22,17.86,21.18,23.9,33.8c1.43,2.99,2.81,5.97,2.77,9.51c-0.05,4.12-2.09,7.08-4.67,9.85
		c-4.48,4.81-10.15,7.91-15.88,10.91c-7.26,3.81-14.86,6.76-22.67,9.27c-6.19,1.99-12.45,3.7-18.71,5.35
		c-6.6,1.73-13.38,2.77-20.08,4.09C327.48,499.47,327.24,499.33,326.77,499.22z"/>
	<path class="st0" d="M178.72,382.01c-1.27,3.19-2.47,6.15-3.63,9.14c-0.52,1.34-1.05,2.69-1.37,4.08
		c-0.76,3.35,0.56,5.92,3.26,7.88c0.7,0.51,1.41,1.01,2.22,1.59c-2.03,1.17-3.97,2.19-5.8,3.38c-2.24,1.47-3.54,3.51-3.63,6.31
		c-0.28,9.12-0.37,18.26,0.25,27.35c0.24,3.56,0.45,7.26,1.43,10.84c0.66,2.42,0.63,5.03,1.15,7.55c0.85,4.2,1.73,8.38,2.71,12.55
		c1.35,5.74,3.15,11.31,5.03,16.88c1.01,2.99,2.31,5.85,3.59,8.81c-3.35,0.83-6.44-0.54-9.49-1.02c-3.88-0.61-7.78-1.49-11.64-2.4
		c-4.96-1.16-9.8-2.67-14.64-4.2c-8.33-2.64-16.48-5.77-24.13-10.06c-4.93-2.77-9.69-5.79-13.63-9.95
		c-5.94-6.27-6.18-10.65-2.92-17.79c4.53-9.95,10.8-18.84,17.81-27.24c6.12-7.33,12.82-14.09,19.89-20.44
		c9.91-8.9,20.64-16.75,32.45-23.02C177.87,382.1,178.19,382.11,178.72,382.01z"/>
	<path class="st3" d="M287.09,328.51c1.12,7.31,2.67,14.57,5.77,21.39c0.66,1.46,1.22,3.08,2.27,4.21
		c4.16,4.52,5.46,10.24,7.01,15.86c0.95,3.47,1.62,7.03,2.66,10.48c0.62,2.05-0.18,2.85-1.89,3.63c-8.81,4-17.97,6.89-27.51,8.38
		c-20.41,3.19-40.05,0.36-58.94-7.99c-2.13-0.94-2.58-1.89-1.87-4.15c2.11-6.72,4.21-13.45,5.83-20.32c0.13-0.53,0.3-1.13,0.64-1.53
		c7.2-8.2,9.93-18.32,12.28-28.59c0.26-1.15,0.26-1.68,1.72-0.96c16.65,8.19,33.38,8.56,50.13,0.23c0.5-0.25,1.01-0.47,1.53-0.7
		C286.79,328.43,286.88,328.48,287.09,328.51z"/>
	<path class="st0" d="M337.89,396.46c0.12,0.99-0.98,1.33-1.73,1.79c-1.71,1.03-3.58,1.8-5.25,2.89c-3,1.94-2.89,5.47,0.16,7.42
		c1.95,1.24,3.97,2.37,5.94,3.57c1.69,1.03,2.47,2.4,2.44,4.53c-0.11,6.5-1.16,12.89-1.85,19.32c-0.8,7.41-2.4,14.65-4.02,21.89
		c-1.65,7.39-3.85,14.63-6.28,21.79c-2.07,6.09-4.92,11.86-7.36,17.8c-1.11,2.7-3.07,3.78-5.73,3.91c-2.32,0.11-4.64,0.18-6.89,0.84
		c-1.73,0.5-2.07-0.54-1.62-1.83c1.86-5.32,3.4-10.77,4.41-16.28c1.3-7.05,2.29-14.17,3.27-21.28c1.24-8.96,1.83-17.97,2.5-26.96
		c0.55-7.42,0.5-14.9-0.1-22.35c-0.17-2.15-0.53-4.3-0.54-6.45c-0.04-7.87-1.4-15.57-2.74-23.29c-1.03-5.96-2.27-11.86-3.94-17.68
		c-0.15-0.52-0.34-1.19,0.11-1.61c0.52-0.48,1.08,0.04,1.53,0.27c5.98,3.19,11.98,6.46,17.2,10.76c3.59,2.96,5.23,7.54,7.13,11.74
		C335.83,390.14,337.19,393.04,337.89,396.46z"/>
	<path class="st0" d="M204.04,501.88c-3.62-0.35-7.24-0.69-10.87-1.04c-0.8-0.08-0.94-0.77-1.23-1.32
		c-2.51-4.75-4.1-9.86-5.87-14.91c-1.48-4.25-2.75-8.54-3.86-12.89c-0.93-3.65-1.66-7.35-2.28-11.06c-0.34-2.03-0.8-4.05-1.15-6.08
		c-2.11-12.48-2.53-25.04-2.41-37.66c0.02-2.57,1.08-3.94,3.11-5.11c2.46-1.42,5.24-2.24,7.54-3.97c2.67-2.01,2.74-4.71,0.05-6.73
		c-1.28-0.96-2.71-1.67-4.21-2.26c-1.65-0.65-2.36-1.74-1.72-3.59c2.26-6.55,5.12-12.84,8.99-18.56c2.22-3.29,6.07-4.83,9.39-6.83
		c3.47-2.09,7.1-3.9,10.65-5.85c0.52-0.29,1.09-0.56,1.58-0.26c0.68,0.42,0.09,0.98-0.05,1.48c-1.82,6.66-3.79,13.27-5.46,19.97
		c-1.69,6.79-3.23,13.64-4.38,20.5c-1.43,8.55-2.87,17.13-3.26,25.86c-0.33,7.46-0.47,14.91-0.26,22.35
		c0.2,7.19,0.54,14.41,1.55,21.52c1.2,8.48,2.48,16.99,5.35,25.14C205.66,501.85,205.41,502.06,204.04,501.88z"/>
	<path class="st4" d="M260.43,40.09c7.43-0.29,13.61,1.6,18.48,6.81c2.71,2.9,4.16,6.41,4.51,10.37c0.16,1.76-0.45,3.05-2.05,3.98
		c-5.93,3.46-10.53,8.23-13.86,14.25c-1.17,2.12-2.08,4.33-2.79,6.62c-0.43,1.41-1.18,1.76-2.59,1.86c-3.11,0.23-5.22-0.46-7.1-3.42
		c-3.37-5.31-7.74-9.96-10.35-15.8c-2.13-4.76-2.92-9.66-1.63-14.72c0.89-3.51,3.34-5.92,6.47-7.69
		C253.08,40.33,256.89,39.77,260.43,40.09z"/>
	<path class="st3" d="M289.17,212.2c0,3.4-0.09,6.53,0.02,9.66c0.13,3.54,2.43,5.91,5.62,6.03c3.59,0.14,6.47-2.19,6.83-5.7
		c0.17-1.67,0.03-3.37,0.06-5.05c0.07-3.63-0.76-6.7-5.16-7.79c2.72-0.77,4.4,0.45,6,1.81c1.53,1.31,3.2,2.05,5.27,1.92
		c1.79-0.11,2.83-0.88,2.37-2.72c-0.33-1.35,0.25-1.32,1.18-1.14c1.57,0.31,3.2,0.47,4.71,0.96c2.68,0.88,4.73,2.61,5,5.57
		c0.59,6.5-0.62,12.6-4.64,17.94c-2.08,2.76-5.14,3.76-8.35,4.28c-6.69,1.07-13.41,1.12-20.1-0.06c-7.78-1.37-11.94-6.43-12.7-15.24
		c-0.08-0.88-0.09-1.76-0.19-2.64c-0.62-5.68,3.07-9.82,8.75-9.81c0.39,0,0.92-0.11,0.98,0.4
		C285.16,213.65,287.08,212.87,289.17,212.2z"/>
	<path class="st3" d="M221.98,209.68c-2.79,4.78-2.62,9.76-1.28,14.71c0.64,2.36,3.42,3.6,6.08,3.37c2.82-0.24,5.16-2.04,5.67-4.75
		c0.7-3.71,0.53-7.47,0.09-11.39c1.28,0.38,2.45,0.82,3.66,1.05c1.37,0.26,2.73,0.05,2.78-1.69c0.03-1.2,0.64-0.6,1.06-0.54
		c4.16,0.55,7.15,4.19,6.92,8.38c-0.12,2.24-0.41,4.45-0.92,6.65c-1.77,7.66-6.51,11.88-14.32,12.73
		c-5.12,0.56-10.26,0.77-15.35,0.02c-8.42-1.24-11.77-4.57-13.56-12.94c-0.64-3-0.86-6.03-0.71-9.08c0.19-3.82,5.34-7.8,8.94-7
		c0.95,0.21,0.53,0.78,0.47,1.28c-0.26,2.09,0.85,2.72,2.72,2.6c2.12-0.14,3.66-1.53,5.37-2.53
		C220.34,210.11,220.96,209.43,221.98,209.68z"/>
	<path class="st3" d="M182.32,231.56c-2.8-1.1-5.14-2.56-7.86-2.99c-1.67-0.27-3.35-0.49-5-0.02c-2.14,0.61-3.28,2.44-2.76,4.36
		c0.59,2.21,2.08,2.75,4.23,2.41c5.8-0.91,12.13,3.99,12.89,9.8c0.52,3.97,1.19,7.91,1.77,11.87c0.45,3.03,0.32,3.17-2.65,3.27
		c-14.96,0.51-26.88-12.99-24.9-27.88c1.53-11.54,10.22-16.59,21.77-14.94c0.75,0.11,1.41,0.37,1.48,1.29
		C181.62,222.93,181.96,227.12,182.32,231.56z"/>
	<path class="st3" d="M340.25,231.1c0.38-4.21,0.73-8.18,1.1-12.16c0.1-1.03,0.62-1.49,1.73-1.55c4.45-0.24,8.79,0.07,12.87,2.09
		c4.67,2.31,6.91,6.34,7.75,11.22c2.02,11.76-4.51,23.54-15.56,28.08c-3.21,1.32-6.58,1.94-10.1,1.47c-1.21-0.16-1.7-0.54-1.51-1.81
		c0.81-5.22,1.49-10.47,2.39-15.67c0.56-3.25,5.66-7.23,8.96-7.25c1.2-0.01,2.42,0.15,3.6,0.03c1.8-0.19,2.89-1.3,3.24-3.07
		c0.36-1.83-0.7-2.85-2.19-3.57c-2.11-1.01-4.26-0.61-6.34,0.01C344.29,229.47,342.45,230.28,340.25,231.1z"/>
	<path class="st4" d="M218.43,72.71c0.97-8.17,3.6-15.46,12.02-19.12c1.16-0.51,2.42-1.36,3.65-0.83c1.41,0.61,0.6,2.14,0.7,3.24
		c0.8,8.45,4.65,15.52,9.77,22.05c1.23,1.57,2.32,3.25,3.51,4.86c0.59,0.81,0.89,1.33-0.53,1.52c-6.8,0.9-13.58,1.87-20.22,3.68
		c-0.61,0.17-1.05-0.09-1.55-0.41c-4.11-2.66-6.26-6.51-6.88-11.29C218.74,75.23,218.6,74.04,218.43,72.71z"/>
	<path class="st4" d="M297.2,96.71c-5.87,2.46-10.76,5.27-14.65,9.53c-2.47,2.71-5.2,5.25-6.38,8.89c-0.32,0.98-1.14,1.06-1.88,1.27
		c-2.53,0.72-5.08,1.42-7.63,2.06c-1.54,0.39-2.53,0.22-2.56-1.88c-0.09-7.83-0.84-15.6-2.68-23.24c-0.43-1.8,0.22-2.26,1.92-2.22
		c10.26,0.24,20.36,1.48,30.19,4.57C294.52,96.01,295.53,96.25,297.2,96.71z"/>
	<path class="st4" d="M220.44,97.58c4.59-1.32,8.46-2.49,12.37-3.53c5.47-1.46,11.07-2.22,16.69-2.88c3.66-0.43,4.03-0.3,5.08,3.27
		c1.47,4.99,2.23,10.11,2.37,15.31c0.06,2.23-0.06,4.46,0.44,6.68c0.36,1.61-0.32,2.45-2.08,2.12c-2.74-0.52-5.48-0.99-8.21-1.59
		c-0.81-0.18-1.63-0.38-2.22-1.24C238.98,107.11,231.52,100.49,220.44,97.58z"/>
	<path class="st4" d="M300.31,76.16c-0.1,3.48-1.61,7.26-4.48,10.49c-1.08,1.22-2.26,1.64-4.03,1.2c-5.95-1.48-11.93-2.9-18.06-3.33
		c-2.06-0.14-1.92-1.06-1.35-2.46c3.45-8.47,9.71-14.12,17.96-17.66c2.69-1.15,5.58,0.08,7.3,2.61
		C299.37,69.51,300.34,72.24,300.31,76.16z"/>
	<path class="st4" d="M331.11,152.77c3.79,0.37,6.95,2.37,10.11,4.17c6.39,3.63,11.83,8.34,15.84,14.66
		c1.58,2.49,1.11,5.16,1.31,7.66c0.38,4.78,0.66,9.67-0.53,14.88c-1.29-2.8-2.66-5.1-4.33-7.22c-2.79-3.54-5.4-7.22-8.94-10.1
		c-2.76-2.25-5.48-4.54-8.5-6.46c-0.43-0.27-0.79-0.85-0.92-1.35C333.78,163.6,332.45,158.19,331.11,152.77L331.11,152.77z"/>
	<path class="st4" d="M164.5,163.6c0.76-7.19,2.14-13.87,7.23-19.33c7.09-7.61,15.86-10.71,26.06-10.26
		c4.29,0.19,4.12,0.32,2.13,4.02c-2.83,5.27-6.21,8.8-12.59,10.39c-7.92,1.98-14.7,6.9-20.3,13.1
		C166.36,162.26,165.78,163.17,164.5,163.6z"/>
	<path class="st2" d="M260.25,280.01c-10.56,0.02-18.05-5.69-20.7-15.68c-0.41-1.55-0.28-1.99,1.5-1.66
		c12.94,2.41,25.88,2.75,38.79-0.29c1.64-0.39,2.11,0.07,1.55,1.66C278.08,273.31,271,279.99,260.25,280.01z"/>
	<path class="st4" d="M163.05,191.85c0.14-4.68-0.74-9.26-0.01-13.84c0.45-2.8,2.1-4.98,3.82-7.07
		c6.15-7.46,13.55-13.26,22.66-16.74c0.67-0.25,1.37-0.77,2.03-0.27c0.79,0.6,0.1,1.35-0.1,1.96c-1.32,4.02-2.47,8.08-3.45,12.2
		c-0.18,0.78-0.29,1.6-1.3,2.11c-9.25,4.71-16.49,11.67-22.26,20.23C164.1,190.92,163.88,191.55,163.05,191.85z"/>
	<path class="st4" d="M323.92,111.72c-6.81,1.4-12.55,4.33-17.85,8.14c-0.69,0.49-1.21,0.49-1.96,0.18
		c-6.01-2.48-12.21-4.23-18.77-4.35c-0.46-0.01-1.15,0.11-1.18-0.48c-0.03-0.49,0.26-1.11,0.61-1.49c3.68-4.08,7.91-7.35,12.97-9.67
		c6.57-3,12.4-1.14,18.2,2C318.68,107.53,321.27,109.2,323.92,111.72z"/>
	<path class="st4" d="M356.08,160.81c-2.7-2.8-4.94-5.04-7.6-6.8c-5.86-3.87-12.06-6.91-19.08-7.96c-1.23-0.18-2.11-0.63-2.55-1.83
		c-0.95-2.66-2.26-5.1-4.05-7.31c-0.84-1.03-1.35-2.1,0.78-2.46c6.12-1.03,12.17-1.17,18.24,0.47c3.64,0.98,6.24,2.99,7.91,6.39
		c2.8,5.7,4.61,11.73,6.34,17.8C356.15,159.4,356.08,159.73,356.08,160.81z"/>
	<path class="st4" d="M185.68,178.29c-0.69,4.88-1.41,9.76-2.05,14.65c-0.64,4.89-1.3,9.78-1.75,14.69
		c-0.14,1.58-0.61,2.02-2.14,2.02c-4.23,0-8.43,0.55-12.53,1.56c-1.49,0.37-2.22,0.39-2.3-1.45c-0.09-1.98-0.51-3.94-0.8-5.9
		c-0.09-0.58-0.01-1.08,0.28-1.61c4.97-9.12,11.87-16.6,19.83-23.16C184.63,178.75,185.19,178.56,185.68,178.29L185.68,178.29z"/>
	<path class="st4" d="M336.38,178.11c4.81,4.73,9.36,8.93,12.98,14.04c2.35,3.32,4.18,6.98,6.82,10.13
		c1.39,1.67,0.06,3.73-0.13,5.57c-0.38,3.6-0.95,3.83-4.58,2.85c-3.21-0.87-6.51-0.68-9.78-0.59c-1.45,0.04-2.03-0.42-1.92-1.92
		c0.34-4.71-0.65-9.32-1.21-13.96C337.92,189.04,337.16,183.87,336.38,178.11z"/>
	<path class="st4" d="M236.79,115.61c-4.58,0.29-8.95,1.41-13.15,3.23c-1.11,0.48-2.18,0.81-3.35-0.1
		c-6.66-5.21-14.4-7.34-22.69-7.88c-0.38-0.02-0.82,0.09-1.05-0.37c7.35-8.28,19.39-10.03,28.95-4.24c2.87,1.74,5.66,3.6,8.23,5.75
		c1.16,0.97,2.28,1.99,3.42,2.98C237.04,115.19,236.91,115.4,236.79,115.61z"/>
	<path class="st4" d="M174.97,132.78c2.83-6.42,7.2-11.39,13.5-14.3c3.21-1.48,6.75-1.52,10.33-1.12c3.91,0.44,7.72,1.12,11.34,2.7
		c0.29,0.13,0.59,0.24,0.88,0.37c4.36,1.98,4,2.18,0.81,5.49c-3.29,3.4-6.25,3.48-10.54,2.45c-8.69-2.08-17.1-0.25-25.02,3.84
		C175.84,132.42,175.4,132.59,174.97,132.78z"/>
	<path class="st4" d="M340.94,128.23c-7.68-1.67-15.05-1.14-22.3,1.31c-0.97,0.33-1.84,0.06-2.62-0.72
		c-1.24-1.24-2.33-2.65-3.86-3.59c-0.98-0.61-0.84-1.17,0.05-1.81c4.04-2.9,8.49-4.7,13.43-5.36c2.54-0.34,5.14-1.12,7.33,0.81
		c1.85,1.64,3.62,3.42,5.21,5.31C339.16,125.37,340.45,126.42,340.94,128.23z"/>
	<path class="st4" d="M331.1,152.77c-0.07-0.04-0.13-0.08-0.2-0.11C330.97,152.7,331.04,152.73,331.1,152.77
		C331.11,152.77,331.1,152.77,331.1,152.77z"/>
	<path class="st4" d="M185.68,178.29c0.04-0.07,0.07-0.13,0.11-0.2C185.76,178.16,185.72,178.22,185.68,178.29
		C185.68,178.29,185.68,178.29,185.68,178.29z"/>
	<path class="st1" d="M298.66,180.61c7.78,0.05,15.34,1.14,22.31,4.87c1.12,0.6,2.23,1.29,3.2,2.12c1.73,1.49,2.02,3.51,0.91,5.16
		c-1.22,1.82-3.19,2.42-5.25,1.24c-6.6-3.79-13.71-5.34-21.24-4.99c-5.8,0.27-11.42,1.58-16.88,3.53c-1.78,0.64-3.45,0.69-4.98-0.56
		c-1.87-1.53-1.96-4.45-0.2-6.16c1.49-1.45,3.43-2.07,5.32-2.68C287.31,181.37,292.91,180.46,298.66,180.61z"/>
	<path class="st1" d="M241.63,192.8c-1.64-0.05-3.12-0.68-4.64-1.18c-11.4-3.74-22.54-3.49-33.32,2.21c-2.63,1.39-4.4,1.1-5.63-0.91
		c-1.09-1.77-0.51-4.17,1.64-5.65c3.94-2.72,8.33-4.5,13-5.47c9.78-2.04,19.44-1.45,28.95,1.63c0.91,0.29,1.8,0.68,2.62,1.17
		c1.84,1.09,2.74,2.67,2.13,4.86C245.82,191.47,243.84,192.84,241.63,192.8z"/>
	<path class="st1" d="M260.45,285.77c-13.31-0.1-22.9-8.29-25.9-22.28c-0.37-1.75-0.77-2.07-2.41-1.37
		c-3.33,1.42-5.55,0.95-6.53-1.12c-1.03-2.17,0.21-4.22,3.5-5.88c3.46-1.75,7.07-2.32,10.66-0.7c5.09,2.29,10.5,2.88,15.92,3.23
		c9.04,0.59,17.93-0.34,26.51-3.44c4.47-1.61,8.53-0.47,12.37,1.85c1.77,1.07,2.98,2.57,1.9,4.8c-1.03,2.13-2.86,2.19-4.92,1.9
		c-1.14-0.16-2.19-1.71-3.22-0.72c-0.69,0.67-0.66,2.08-0.98,3.15C283.47,278.23,273.48,285.87,260.45,285.77z M260.84,278.89
		c9.91-0.02,16.43-6.17,19.47-14.71c0.52-1.46,0.08-1.89-1.43-1.53c-11.89,2.8-23.81,2.48-35.74,0.26c-1.64-0.31-1.76,0.1-1.38,1.53
		C244.2,273.65,251.11,278.91,260.84,278.89z"/>
	<path class="st1" d="M260.34,253.32c-2.89-0.28-5.81-0.67-8.51-2.03c-1.44-0.72-2.43-1.78-2.6-3.47c-0.26-2.52,1.26-3.99,3.75-3.54
		c0.62,0.11,1.26,0.3,1.81,0.61c3.86,2.14,7.72,1.53,11.55-0.01c2.55-1.02,4.15-0.83,5.03,0.84c0.97,1.85,0.22,3.8-2.03,5.19
		C266.6,252.6,263.54,253.07,260.34,253.32z"/>
</g>
</svg>
