<svg version="1.1" xmlns="http://www.w3.org/2000/svg" xmlns:xlink="http://www.w3.org/1999/xlink" viewBox="0 0 439 605">
    <style type="text/css">
        .st0{fill:#C3A6D1;}
        .st1{fill:#584866;}
        .st2{fill:#554561;}
        .st3{fill:#544664;}
        .st4{fill:#EFE9DB;}
        .st5{fill:#574967;}
        .st6{fill:#5D4D67;}
        .st7{fill:#FAF7EF;}
        .st8{fill:#EBE4D4;}
        .st9{fill:#594A65;}
    </style>
<g>
	<g>
		<path class="st0" d="M-973.8-743.45c-1.88-0.97-3.76-1.92-5.67-2.85l-305.83,305.83c0.92,1.91,1.87,3.79,2.85,5.67L-973.8-743.45z
			"/>
	</g>
	<g>
		<path class="st0" d="M-997.27-753.97c-2.06-0.79-4.14-1.55-6.24-2.28l-291.74,291.74c0.73,2.09,1.49,4.17,2.28,6.24
			L-997.27-753.97z"/>
	</g>
	<g>
		<path class="st0" d="M-918.21-703.04c-1.26-1.24-2.54-2.47-3.83-3.69l-323.69,323.69c1.21,1.29,2.44,2.56,3.69,3.83
			L-918.21-703.04z"/>
	</g>
	<g>
		<path class="st0" d="M-985.25-748.99c-1.97-0.88-3.95-1.73-5.95-2.56l-299.35,299.35c0.83,2,1.68,3.98,2.56,5.95L-985.25-748.99z"
			/>
	</g>
	<g>
		<path class="st0" d="M-1009.87-758.37c-2.17-0.69-4.35-1.35-6.54-1.97l-282.93,282.93c0.62,2.2,1.29,4.37,1.97,6.54
			L-1009.87-758.37z"/>
	</g>
	<g>
		<path class="st0" d="M-926.46-710.78c-1.32-1.18-2.66-2.35-4.01-3.5l-322.82,322.82c1.15,1.35,2.32,2.69,3.5,4.01L-926.46-710.78z
			"/>
	</g>
	<g>
		<path class="st0" d="M-953.61-731.63c-1.52-0.99-3.04-1.97-4.59-2.93l-315.37,315.37c0.96,1.54,1.94,3.07,2.93,4.59
			L-953.61-731.63z"/>
	</g>
	<g>
		<path class="st0" d="M-935.11-718.14c-1.39-1.12-2.79-2.23-4.2-3.32l-321.15,321.15c1.09,1.41,2.19,2.81,3.32,4.2L-935.11-718.14z
			"/>
	</g>
	<g>
		<path class="st0" d="M-944.15-725.09c-1.45-1.06-2.91-2.1-4.39-3.13l-318.67,318.67c1.03,1.48,2.07,2.94,3.13,4.39L-944.15-725.09
			z"/>
	</g>
	<g>
		<path class="st0" d="M-963.49-737.76c-1.58-0.93-3.18-1.84-4.79-2.73l-311.21,311.21c0.89,1.61,1.8,3.2,2.73,4.79L-963.49-737.76z
			"/>
	</g>
	<g>
		<path class="st0" d="M-1122.36-764.88c-3.66,0.7-7.28,1.49-10.88,2.36l-168.29,168.28c-0.87,3.59-1.66,7.22-2.36,10.88
			L-1122.36-764.88z"/>
	</g>
	<g>
		<path class="st0" d="M-1144.88-759.36c-4.3,1.29-8.54,2.68-12.73,4.21l-136.54,136.54c-1.53,4.19-2.93,8.43-4.21,12.73
			L-1144.88-759.36z"/>
	</g>
	<g>
		<path class="st0" d="M-1265.92-672.33l54.59-54.59C-1232.45-711.93-1250.93-693.45-1265.92-672.33z"/>
	</g>
	<g>
		<path class="st0" d="M-1171.87-749.37c-5.74,2.55-11.35,5.32-16.83,8.31l-91.35,91.35c-2.99,5.48-5.77,11.09-8.31,16.83
			L-1171.87-749.37z"/>
	</g>
	<g>
		<path class="st0" d="M-1102.43-767.82c-3.27,0.33-6.51,0.75-9.73,1.21l-193.45,193.45c-0.47,3.22-0.88,6.46-1.21,9.73
			L-1102.43-767.82z"/>
	</g>
	<g>
		<path class="st0" d="M-1023.12-762.12c-2.29-0.57-4.59-1.11-6.9-1.61l-272.71,272.71c0.5,2.31,1.04,4.62,1.61,6.9L-1023.12-762.12
			z"/>
	</g>
	<g>
		<path class="st0" d="M-1037.08-765.16c-2.41-0.45-4.84-0.87-7.28-1.24l-261.03,261.03c0.37,2.44,0.79,4.86,1.24,7.28
			L-1037.08-765.16z"/>
	</g>
	<g>
		<path class="st0" d="M-1051.85-767.39c-2.57-0.3-5.14-0.56-7.73-0.78l-247.59,247.59c0.22,2.59,0.48,5.17,0.78,7.73
			L-1051.85-767.39z"/>
	</g>
	<g>
		<path class="st0" d="M-1084.31-768.93c-2.98,0.07-5.95,0.2-8.9,0.38l-214.34,214.34c-0.18,2.95-0.32,5.92-0.38,8.9
			L-1084.31-768.93z"/>
	</g>
	<g>
		<path class="st0" d="M-1067.53-768.71c-2.74-0.14-5.5-0.21-8.27-0.25l-232.16,232.16c0.04,2.77,0.11,5.53,0.25,8.27
			L-1067.53-768.71z"/>
	</g>
	<g>
		<path class="st0" d="M-877.1-648.14c-0.87-1.63-1.76-3.24-2.67-4.84l-312.2,312.2c1.6,0.91,3.22,1.8,4.84,2.67L-877.1-648.14z"/>
	</g>
	<g>
		<path class="st0" d="M-850.12-547.12c-0.07-2.4-0.19-4.79-0.34-7.18l-242.84,242.84c2.38,0.15,4.78,0.26,7.18,0.34L-850.12-547.12
			z"/>
	</g>
	<g>
		<path class="st0" d="M-910.35-694.9c-1.2-1.31-2.41-2.6-3.64-3.87l-323.78,323.78c1.28,1.23,2.57,2.44,3.87,3.64L-910.35-694.9z"
			/>
	</g>
	<g>
		<path class="st0" d="M-851.07-562.17c-0.22-2.27-0.46-4.53-0.74-6.77l-256.13,256.13c2.25,0.28,4.51,0.52,6.77,0.74
			L-851.07-562.17z"/>
	</g>
	<g>
		<path class="st0" d="M-851.51-513.73c0.32-2.76,0.6-5.54,0.81-8.33l-210.37,210.37c2.79-0.22,5.56-0.5,8.33-0.81L-851.51-513.73z"
			/>
	</g>
	<g>
		<path class="st0" d="M-888.78-412.46c4.11-6.12,7.93-12.45,11.45-18.96l-93.09,93.09c6.52-3.52,12.85-7.34,18.96-11.45
			L-888.78-412.46z"/>
	</g>
	<g>
		<path class="st0" d="M-869.25-447.99c1.82-4.15,3.53-8.35,5.11-12.63l-135.47,135.47c4.27-1.58,8.48-3.29,12.63-5.11
			L-869.25-447.99z"/>
	</g>
	<g>
		<path class="st0" d="M-852.88-576.36c-0.34-2.14-0.72-4.27-1.12-6.4L-1121.76-315c2.12,0.4,4.25,0.78,6.4,1.12L-852.88-576.36z"/>
	</g>
	<g>
		<path class="st0" d="M-854.48-494.77c0.61-3.03,1.15-6.08,1.64-9.15l-190.08,190.08c3.07-0.49,6.12-1.03,9.15-1.64L-854.48-494.77
			z"/>
	</g>
	<g>
		<path class="st0" d="M-859.85-473.39c1.04-3.44,2.01-6.91,2.89-10.41l-165.84,165.84c3.5-0.88,6.97-1.85,10.41-2.89
			L-859.85-473.39z"/>
	</g>
	<g>
		<path class="st0" d="M-850.19-531.05c0.1-2.55,0.16-5.12,0.17-7.69l-227.73,227.73c2.57-0.01,5.14-0.08,7.69-0.17L-850.19-531.05z
			"/>
	</g>
	<g>
		<path class="st0" d="M-895.81-677.43c-1.07-1.43-2.16-2.84-3.27-4.25l-321.6,321.6c1.4,1.11,2.82,2.19,4.25,3.27L-895.81-677.43z"
			/>
	</g>
	<g>
		<path class="st0" d="M-889.15-668.09c-1.01-1.49-2.03-2.97-3.08-4.44l-319.31,319.31c1.47,1.04,2.95,2.07,4.44,3.08
			L-889.15-668.09z"/>
	</g>
	<g>
		<path class="st0" d="M-902.88-686.36c-1.14-1.37-2.29-2.72-3.46-4.06l-323.08,323.08c1.34,1.17,2.69,2.32,4.06,3.46
			L-902.88-686.36z"/>
	</g>
	<g>
		<path class="st0" d="M-882.91-658.33c-0.94-1.56-1.9-3.1-2.88-4.63l-316.18,316.18c1.53,0.98,3.08,1.94,4.64,2.88L-882.91-658.33z
			"/>
	</g>
	<g>
		<path class="st0" d="M-871.75-637.49c-0.8-1.7-1.62-3.38-2.46-5.06l-307.34,307.34c1.67,0.84,3.36,1.66,5.06,2.46L-871.75-637.49z
			"/>
	</g>
	<g>
		<path class="st0" d="M-858.66-602.58c-0.55-1.94-1.13-3.87-1.73-5.79l-286.99,286.99c1.92,0.6,3.85,1.18,5.79,1.73L-858.66-602.58
			z"/>
	</g>
	<g>
		<path class="st0" d="M-862.49-614.75c-0.64-1.85-1.3-3.69-1.99-5.53l-294.8,294.8c1.83,0.69,3.67,1.35,5.53,1.99L-862.49-614.75z"
			/>
	</g>
	<g>
		<path class="st0" d="M-866.87-626.38c-0.72-1.77-1.47-3.53-2.23-5.28l-301.56,301.56c1.75,0.77,3.51,1.51,5.28,2.23
			L-866.87-626.38z"/>
	</g>
	<g>
		<path class="st0" d="M-855.45-589.8c-0.45-2.04-0.93-4.06-1.43-6.08l-278,278c2.02,0.51,4.04,0.98,6.08,1.43L-855.45-589.8z"/>
	</g>
</g>
<g>
	<path class="st1" d="M311.38,564.26c-3.87,0.65-7.75,0.55-11.65,0.35c-0.23-0.15-0.47-0.3-0.7-0.44c-2.3-2.86-1.97-4.66,1.01-5.31
		c9.7-2.11,19.42-2.42,29.19-0.46c1.38,0.28,3.4,1.35,3.63-1.12c0.16-1.82-0.99-3.52-3.03-3.84c-1.77-0.27-3.6-0.11-5.4-0.15
		c0.87-0.18,1.76-0.58,2.6-0.49c3.38,0.38,3.74-0.96,3.08-4.01c-1.75-8.11-4.15-16.21-2.31-24.67c1.05-1.72,0.63-3.65,0.77-5.5
		c0.73-5.6,1.54-11.2,2.18-16.81c3.53-31.08,7.03-62.17,10.53-93.26c1.41-12.53,3.22-25.02,4.01-37.62
		c1.77-12.99,2.92-26.05,3.99-39.11c1.26-8.74,3.3-17.46,3.58-26.23c0.42-13.27,11.2-25.55,22.62-28c2.51-0.54,3.15-1.85,3.33-4.26
		c1.04-14.1,1.07-28.25,1.91-42.36c1.13-18.86,1.29-37.78,1.92-56.67c0.23-6.81,0.6-13.61,0.88-20.42
		c0.59-14.26,1.71-28.51,1.37-42.78c-0.25-10.58-9.29-19.55-19.86-20.04c-6.03-0.28-12.09,0.01-18.13,0.05
		c-1.49-3.33-0.39-6.83-0.65-10.24c-0.12-1.61,1.4-1.12,2.23-1.5c4.14,0,8.27-0.01,12.41-0.01c0.25,0.01,0.5,0.02,0.75,0.02
		c18.89,0.92,30.69,10.2,34.3,26.89c0.69,3.2,0.6,6.41,0.47,9.62c-2.2,52.89-4.43,105.77-6.71,158.65c-0.08,1.9,0.13,3,2.16,3.77
		c11.47,4.39,17.41,13.15,19.06,25.03c0.29,2.09,1.02,3.58,2.66,4.84c3.71,2.87,6.64,6.45,9,10.5c2,3.42,2.92,7.04,2.63,11.07
		c-1.4,19.27-2.68,38.54-4.01,57.82c-0.43,6.23-1.86,12.04-7.53,15.72c-3.85,2.5-7.92,3.95-12.21,0.97
		c-2.44-1.69-2.55,0.23-2.74,1.73c-0.99,7.66-1.97,15.33-2.83,23c-3.82,34.3-7.69,68.6-11.3,102.93c-0.5,4.79-2.14,8.84-4.36,12.97
		c-7.94,14.73-15.67,29.58-23.39,44.42c-1.55,2.98-3.26,5.51-6.87,6.15c-4.58,0.82-8.24-1.16-9.56-5.63
		c-2.04-6.91-4.16-13.82-5.7-20.85c-0.84-3.84-2.41-5.65-6.36-5.02c-0.75-0.77-1.48-0.76-2.2,0.05c-3.11,0.05-6.22,0.1-9.33,0.15
		C314.75,561.99,313.29,562.01,311.38,564.26z M368.72,530.27c1.55-0.49,4.14,1.36,4.54-2.54c2.2-21.21,4.63-42.39,6.94-63.58
		c2.39-21.83,4.64-43.67,7.13-65.49c2.64-23.09,5.47-46.16,8.26-69.24c0.25-2.08,0.02-3.13-2.51-3.62c-8.85-1.7-17.85-2.14-26.7-3.7
		c-3.11-0.55-3.73,0.63-4.01,3.35c-1.53,14.82-3.19,29.62-4.85,44.42c-2.23,19.91-4.49,39.81-6.76,59.71
		c-1.87,16.33-3.77,32.66-5.66,48.98c-1.79,15.43-3.56,30.87-5.43,46.29c-0.18,1.52,0.08,2.04,1.63,2.21
		C350.37,528.07,359.42,529.17,368.72,530.27z M399.45,307.6c0-1.19,0.02-1.96,0-2.73c-0.24-10.59-9.59-18.09-19.95-16.01
		c-8.11,1.63-12.79,7.52-14.19,16.62c-0.6,3.9,0.53,4.84,4.12,5.19c7.68,0.73,15.3,2.21,22.98,2.8
		C400.73,314.11,398.92,315.62,399.45,307.6z M348.62,579.21c1.84-0.54,2.25-1.98,2.87-3.21c1.96-3.91,3.87-7.84,5.81-11.75
		c3.19-6.45,6.45-12.87,9.54-19.37c0.61-1.29,1.99-3.31-1.05-3.73c-7.63-1.07-15.27-2.04-22.89-3.19c-3.1-0.47-3.35,0.85-2.82,3.4
		c1.41,6.79,2.47,13.65,4.03,20.4C345.45,567.58,346.45,573.54,348.62,579.21z M413.46,330.04c0.4-2.12,0.59-5.06-1.96-7.36
		c-0.84-0.75-1.46-2.23-2.66-1.97c-1.41,0.3-0.95,1.95-1.07,2.98c-2.45,21.62-4.86,43.25-7.21,64.88c-0.36,3.28,1.63,5.48,4.81,5.65
		c3.57,0.19,4.64-1.89,4.78-5.08C410.99,369.73,411.84,350.31,413.46,330.04z"/>
	<path class="st2" d="M109.62,69.44c2.29-5.88,4.94-11.57,8.5-16.82c6.43-9.47,15.03-14.3,26.77-13.63
		c8.47,0.48,16.98,0.03,25.47,0.24c2.69,0.06,3.34-0.92,3.76-3.4c3.15-18.51,18.38-29.5,35.8-26.01
		c11.39,2.28,20.84,12.56,22.54,25.07c0.45,3.3,1.59,4.29,4.77,4.22c7.59-0.16,15.18,0.07,22.77,0c10.01-0.1,17.49,4.4,23.11,12.39
		c4.02,5.73,6.93,12.01,9.05,18.67c0.22,2.07,0.44,4.14,0.66,6.22c-1.07,3.12-0.89,6.58-2.94,9.46c-4.53,6.36-10.7,8.54-18.35,8.52
		c-47.48-0.1-94.97-0.01-142.45,0.06c-11.65,0.02-18.25-5.51-20.35-17.26C109.03,74.6,109.33,72.02,109.62,69.44z M200.84,50.89
		c-19.71,0-39.42,0.04-59.13-0.04c-2.44-0.01-4.43,0.63-6.46,1.92c-7.15,4.51-10.77,11.7-13.76,19.02
		c-2.97,7.28,2.6,12.9,10.45,11.25c1.37-0.29,2.79-0.4,4.19-0.43c10.6-0.28,21.18,0.78,31.79,0.06c8.07-0.55,16.16,0.4,24.25,0.6
		c7.98,0.2,15.98-0.62,23.97-0.62c9.84,0,19.68-0.17,29.53,0.59c7.85,0.6,15.78,0.06,23.68,0.17c2.24,0.03,4.36-0.39,6.45-0.96
		c4.23-1.15,5.9-4.43,4.89-8.83c-1.02-4.41-2.67-8.61-5.2-12.27c-4.44-6.41-9.75-10.87-18.61-10.61
		C238.2,51.26,219.51,50.89,200.84,50.89z M202.75,39.22c0-0.03,0-0.07,0-0.1c5.26,0,10.52,0,15.78,0c1.49,0,3.06,0,2.44-2.23
		c-1.6-5.78-3.69-11.26-9.36-14.4c-11.55-6.41-23.41,1.26-25.86,14.88c-0.4,2.22,1.15,1.84,2.37,1.85
		C193,39.24,197.88,39.22,202.75,39.22z"/>
	<path class="st3" d="M324.43,553.28c1.8,0.03,3.64-0.13,5.4,0.15c2.04,0.31,3.19,2.02,3.03,3.84c-0.22,2.48-2.25,1.4-3.63,1.12
		c-9.77-1.96-19.49-1.65-29.19,0.46c-2.98,0.65-3.31,2.45-1.01,5.31c-0.03,0.16-0.04,0.33-0.03,0.49c-0.78,0.03-1.55,0.07-2.33,0.1
		c-0.25-0.35-0.49-0.34-0.73,0.01c-0.54-0.01-1.07-0.01-1.61-0.02c-0.62-0.72-1.47-0.53-2.27-0.57c0.55-1.28,3.95-0.52,2.44-3.21
		c-1.2-2.13-3.11-1.3-4.65-0.48c-1.9,1.02,0.13,2.45-0.12,3.69c-1.79,0.29-3.75-0.67-5.4,0.72c-8.78,0.23-17.57,0.45-26.35,0.68
		c-0.51-0.71-1-0.67-1.46,0.05c-6.73,0.22-13.45,0.43-20.18,0.65c-1.28-0.82-2.55-0.87-3.8,0.08c-19.81,0.58-39.61,1.2-59.42,1.73
		c-28.95,0.78-57.91,1.3-86.85,2.32c-15.23,0.54-27.23-4.35-34.85-18.06c-0.68-1.22-1.53-2.4-1.49-3.91
		c-0.18-0.42-0.36-0.83-0.53-1.25c-0.83-1.72-1.32-3.54-1.44-5.45c0.08-0.08,0.23-0.2,0.22-0.24c-0.08-0.18-0.2-0.34-0.31-0.51
		c-0.37-7.78-0.75-15.57-1.09-23.35c-0.17-3.83-0.26-7.67-0.38-11.5c0.89-1.27,0.93-2.53-0.07-3.77c-0.24-4.41-0.47-8.82-0.71-13.24
		c0.71-0.54,0.62-1.02-0.1-1.46c-0.21-6.22-0.43-12.43-0.64-18.65c0.86-1.55,1.01-3.07-0.16-4.55c-0.21-4.41-0.41-8.82-0.62-13.23
		c0.88-2.05,1.05-4.09-0.14-6.09c-0.54-5.94-0.9-11.89-0.67-17.86c0.94-1.55,1.06-3.08-0.13-4.57c-0.44-4.65-0.83-9.3-0.65-13.97
		c0.83-0.76,0.82-1.51-0.04-2.23c-0.18-5.45-0.36-10.9-0.54-16.35c0.65-1,0.68-1.99-0.08-2.96c-0.02-0.8-0.03-1.61-0.05-2.41
		c0.99-1.15,0.41-2.54,0.57-3.82c0.66,0.11,1.54,0.43,1.4,1.05c-1.22,5.4,2.46,9.96,2.46,15.13c0,1.18,0,2.45,1.36,2.89
		c1.77,0.57,1.43-1.41,2.22-1.98c1.45-1.06,0.2-4.32,3.28-3.95c0.04,2.55,0.09,5.1,0.13,7.65c-0.31,3.72,0.46,7.52-0.48,11.36
		c-1.58-0.74-0.75-2.04-1.24-2.82c-0.75-1.17-0.22-3.75-2.33-3.3c-1.57,0.34-1.7,2.55-1.31,4.02c1.17,4.44-0.97,9.38,2.17,13.56
		c0.56,0.75,0.4,2.04,1.83,1.86c1.45-0.18,1.22-1.36,1.34-2.36c0.35-2.75-0.79-5.62,0.69-8.27l0.03,0.03
		c0.48,5.87-0.8,11.8,0.69,17.63c0.06,3.59,0.12,7.19,0.17,10.78c0.3,5.44-0.85,10.94,0.66,16.32l0.03,0.09
		c0.01,4.19-0.12,8.39,0.08,12.57c0.17,3.49-0.84,7.07,0.62,10.48c0.71,15.8,1.79,31.58,1.7,47.41c-0.02,3.65,0.61,7.19,1.62,10.64
		c3.42,11.58,10.94,17.15,23.03,17.1c6.04-0.03,12.1-0.55,18.11-0.55c27.8-0.02,55.54-1.82,83.33-1.91
		c3.35-0.01,6.69-0.03,10.04-0.14c18.51-0.63,37.01-1.5,55.53-1.38c18.22,0.61,36.41-0.98,54.62-0.77c0.89,0.01,1.82,0.12,2.53-0.62
		C312.6,553.43,318.51,553.36,324.43,553.28z M47.86,438.94c1.01,1.01,0.03,3.83,1.86,3.55c2.62-0.4,1.77-3.52,2.53-5.39
		c0.33-0.81-0.42-1.88-1.49-1.72C48.86,435.64,48.02,437,47.86,438.94z M268.99,563.15c1.48,1.47,2.73,0.99,5,0.56
		C271.83,562.38,270.59,562.51,268.99,563.15z"/>
	<path class="st4" d="M109.62,69.44c-0.29,2.58-0.59,5.16-0.88,7.74c-10.69,0-21.39,0.15-32.08-0.1c-3.61-0.09-4.3,0.59-4.32,4.44
		c-0.12,18.92,0.73,37.81,0.98,56.72c0.34,25.48-0.71,50.95,0.64,76.44c0.9,17.07-0.45,34.2,0.78,51.31
		c0.87,12.17-0.27,24.4,0.73,36.63c0.93,11.38,0.45,22.86,0.73,34.3c0.89,36.22-0.15,72.46,0.78,108.7
		c0.63,24.56,0.48,49.15,0.98,73.72c-6.19-0.89-6.19-0.89-6.21,4.48c-1.59,0.05-1.41-1.12-1.41-2.1c0.01-4.68,0.05-9.35,0.08-14.03
		c0.89-2.55,0.99-5.08-0.06-7.61c-0.33-24.18-0.92-48.36-1.43-72.54c-0.78-37.19,0.05-74.4-0.85-111.6
		c-0.44-18.27-0.35-36.54-0.64-54.81c-0.55-35-1.12-69.99-1.71-104.99c-0.31-18.41-0.21-36.82-0.24-55.24
		c-0.01-3.61-0.24-7.19-0.87-10.75c0.19-3.87,1.03-7.78-0.61-11.55c0.13-9.15,0.13-9.15,9.36-9.15
		C85.45,69.44,97.53,69.44,109.62,69.44z"/>
	<path class="st5" d="M63.99,78.59c1.64,3.77,0.8,7.68,0.61,11.55c-15.85,0.85-23.38,10.24-22.13,25.22
		c1.57,18.84,1.23,37.77,2.21,56.65c0.54,10.52,0.99,21.05,1.38,31.58c0.86,23.39,1.65,46.77,2.46,70.16
		c0.12,3.6,0.05,7.21,0.31,10.8c1.28,17.96,1.39,35.96,1.94,53.94c-1.53,5.09-0.22,10.23,0.06,15.35c0-4.58,0-9.15,0-13.73
		c1.28,5.84,0.6,11.77,0.73,17.66c-2.82,1.08-3,3.83-0.48,9c0.84-1.23,0.43-2.52,0.61-3.69c1.11,3.57,0.6,7.24,0.59,10.87
		c-1.5-1.3,0.27-3.69-1.84-5.38c-0.62,6.67,2.24,12.62,1.25,18.8c-0.18,1.12-0.45,2.44,0.7,4.08c0-5.13,0-9.71,0-14.29
		c1.23,5.61,0.59,11.29,0.69,16.94c-3.08-0.37-1.83,2.88-3.28,3.95c-0.78,0.58-0.45,2.55-2.22,1.98c-1.36-0.44-1.35-1.71-1.36-2.89
		c-0.01-5.17-3.68-9.73-2.46-15.13c0.14-0.62-0.74-0.94-1.4-1.05c-0.24,0-0.47,0-0.71,0c-0.01-0.52-0.02-1.04-0.03-1.56
		c0.76-0.51,0.75-1.02-0.01-1.53c-0.45-4.4-0.83-8.8-0.59-13.23c0.81-1.01,0.83-2-0.07-2.97c-0.22-5.7-0.44-11.4-0.66-17.11
		c0.59-0.49,0.57-0.98-0.02-1.45c-0.02-1.07-0.05-2.13-0.07-3.2c0.89-1.3,0.98-2.57-0.15-3.8c-0.3-4.92-0.97-9.83-0.58-14.78
		c0.83-1.27,0.9-2.53-0.11-3.75c-0.43-4.68-0.87-9.36-0.59-14.07c0.68-3.33,1.05-6.65-0.27-9.92c-0.57-4.65-0.83-9.31-0.6-14
		c0.68-0.53,0.6-1-0.09-1.44c-0.22-6.48-0.44-12.96-0.66-19.44c0.81-2.06,1.07-4.11-0.22-6.1c-0.43-10.33-0.87-20.66-1.3-30.98
		c0.63-4.92,1.36-9.84-0.41-14.69c-0.54-3.07-0.66-6.16-0.45-9.27c0.87-1.02,0.89-2.02-0.07-3c-0.16-3.38-0.32-6.77-0.47-10.15
		c0.05-0.07,0.16-0.15,0.14-0.2c-0.04-0.15-0.12-0.29-0.18-0.44c-0.05-1.07-0.1-2.13-0.15-3.2c0.81-2.85,1.15-5.68-0.24-8.47
		c-0.45-9.55-0.9-19.1-1.35-28.65c0.9-1.28,0.96-2.54-0.09-3.77c-0.21-4.42-0.42-8.84-0.63-13.25c0.82-1.78,0.94-3.55-0.12-5.29
		c-1.04-8.65-1.34-17.19,3.1-25.18C41.13,84.61,50.96,78.94,63.99,78.59z"/>
	<path class="st4" d="M292.82,76.39c-0.22-2.07-0.44-4.14-0.66-6.22c1.52-0.97,3.23-0.73,4.89-0.73
		c14.69-0.01,29.37-0.01,44.06-0.01c5.04,0,5.04,0,5.06,4.96c0.01,2.01-0.46,4.23,2.3,4.97c-0.83,0.38-2.35-0.11-2.23,1.5
		c0.26,3.41-0.85,6.91,0.65,10.24c0.09,34.47-0.09,68.94,0.58,103.4c0.53,27.13,0.01,54.27,0.78,81.4
		c0.53,18.63-0.17,37.29,1.03,55.91c-1.07,13.06-2.22,26.12-3.99,39.11c-2.04,0.2-3.02-0.47-3.01-2.78c0.06-9.5-0.44-19-0.6-28.49
		c-0.42-24.81,0.19-49.64-0.29-74.45c-0.25-12.92-0.61-25.83-0.63-38.75c-0.04-22.7,0.22-45.4-0.76-68.09
		c-1.05-24.29-0.75-48.6-0.78-72.9c0-1.54-0.14-3.11,0.03-4.63c0.33-2.86-0.74-3.78-3.66-3.75c-12.23,0.15-24.46,0.04-36.69,0.09
		C296.81,77.2,294.8,76.98,292.82,76.39z"/>
	<path class="st6" d="M35.25,206.98c1.77,4.85,1.04,9.77,0.41,14.69C35.37,216.77,34.88,211.89,35.25,206.98z"/>
	<path class="st6" d="M38.53,293.63c1.31,3.27,0.94,6.6,0.27,9.92C38.33,300.25,38.13,296.95,38.53,293.63z"/>
	<path class="st6" d="M292.06,564.17c0.79,0.04,1.64-0.15,2.27,0.57c-3.32,0.42-6.65,0.47-9.99,0.15c1.65-1.38,3.6-0.43,5.4-0.72
		C290.51,564.17,291.29,564.17,292.06,564.17z"/>
	<path class="st6" d="M33.83,172.24c1.38,2.79,1.05,5.62,0.24,8.47C33.99,177.88,33.91,175.06,33.83,172.24z"/>
	<path class="st6" d="M36.96,252.65c1.29,1.99,1.03,4.03,0.22,6.1C36.75,256.73,36.75,254.69,36.96,252.65z"/>
	<path class="st6" d="M43.97,445.15c1.19,2,1.02,4.04,0.14,6.09C43.67,449.22,43.63,447.19,43.97,445.15z"/>
	<path class="st6" d="M31.65,121.27c1.06,1.74,0.93,3.51,0.12,5.29C31.27,124.81,31.36,123.04,31.65,121.27z"/>
	<path class="st3" d="M311.38,564.26c1.91-2.25,3.37-2.27,5.41-0.08C314.99,564.2,313.18,564.23,311.38,564.26z"/>
	<path class="st6" d="M44.73,464.47c1.17,1.48,1.02,3,0.16,4.55C44.42,467.52,44.52,466,44.73,464.47z"/>
	<path class="st6" d="M43.16,422.72c1.19,1.49,1.07,3.02,0.13,4.57C42.88,425.78,42.91,424.26,43.16,422.72z"/>
	<path class="st6" d="M32.4,139.81c1.04,1.23,0.99,2.5,0.09,3.77C32.07,142.34,32.17,141.08,32.4,139.81z"/>
	<path class="st6" d="M40.07,336.14c1.12,1.22,1.04,2.49,0.15,3.8C39.86,338.68,39.73,337.42,40.07,336.14z"/>
	<path class="st6" d="M39.38,317.62c1.01,1.22,0.94,2.47,0.11,3.75C39.03,320.13,39,318.88,39.38,317.62z"/>
	<path class="st6" d="M46.34,502.37c1,1.24,0.96,2.49,0.07,3.77C45.98,504.89,46.07,503.63,46.34,502.37z"/>
	<path class="st6" d="M40.96,361.69c0.9,0.97,0.88,1.96,0.07,2.97C40.59,363.68,40.65,362.69,40.96,361.69z"/>
	<path class="st6" d="M34.73,194.7c0.96,0.98,0.94,1.98,0.07,3C34.37,196.71,34.46,195.71,34.73,194.7z"/>
	<path class="st6" d="M42.47,406.51c0.87,0.73,0.88,1.47,0.04,2.23C42.13,408.01,42.14,407.27,42.47,406.51z"/>
	<path class="st6" d="M326.12,564.03c0.72-0.81,1.45-0.82,2.2-0.05C327.59,564.39,326.86,564.34,326.12,564.03z"/>
	<path class="st6" d="M41.66,380.97c0.24,0,0.47,0,0.71,0c-0.15,1.28,0.42,2.67-0.57,3.82C41.76,383.52,41.71,382.24,41.66,380.97z"
		/>
	<path class="st6" d="M232.55,566.36c1.25-0.95,2.51-0.9,3.8-0.08C235.08,566.3,233.82,566.33,232.55,566.36z"/>
	<path class="st6" d="M37.83,278.19c0.69,0.44,0.77,0.91,0.09,1.44C37.58,279.17,37.46,278.7,37.83,278.19z"/>
	<path class="st6" d="M41.62,377.89c0.76,0.5,0.77,1.01,0.01,1.53C41.63,378.9,41.63,378.39,41.62,377.89z"/>
	<path class="st6" d="M41.85,387.2c0.76,0.97,0.72,1.96,0.08,2.96C41.91,389.18,41.88,388.19,41.85,387.2z"/>
	<path class="st6" d="M45.53,487.67c0.72,0.44,0.81,0.92,0.1,1.46C45.28,488.67,45.2,488.19,45.53,487.67z"/>
	<path class="st6" d="M256.53,565.63c0.46-0.72,0.95-0.76,1.46-0.05C257.52,565.94,257.03,565.9,256.53,565.63z"/>
	<path class="st6" d="M40.29,343.13c0.59,0.48,0.6,0.96,0.02,1.45C40.3,344.1,40.29,343.62,40.29,343.13z"/>
	<path class="st6" d="M34.22,183.9c0.06,0.15,0.15,0.29,0.18,0.44c0.01,0.05-0.09,0.14-0.14,0.2
		C34.05,184.35,34.04,184.13,34.22,183.9z"/>
	<path class="st4" d="M361.62,79.39c-0.25-0.01-0.5-0.02-0.75-0.02C361.13,78.98,361.38,79.01,361.62,79.39z"/>
	<path class="st6" d="M47.88,541c0.11,0.17,0.24,0.33,0.31,0.51c0.02,0.04-0.14,0.16-0.22,0.24C47.94,541.49,47.91,541.24,47.88,541
		z"/>
	<path class="st6" d="M295.94,564.76c0.24-0.35,0.49-0.35,0.73-0.01C296.43,564.76,296.18,564.76,295.94,564.76z"/>
	<path class="st6" d="M299,564.66c-0.01-0.16,0-0.33,0.03-0.49c0.23,0.15,0.47,0.3,0.7,0.44C299.49,564.62,299.24,564.64,299,564.66
		z"/>
	<path class="st6" d="M49.42,547.18c0.18,0.42,0.36,0.83,0.53,1.25C49.77,548.02,49.59,547.6,49.42,547.18z"/>
	<path class="st7" d="M292.82,76.39c1.98,0.59,3.99,0.81,6.07,0.8c12.23-0.05,24.46,0.06,36.69-0.09c2.92-0.04,3.99,0.89,3.66,3.75
		c-0.17,1.52-0.03,3.09-0.03,4.63c0.04,24.3-0.26,48.61,0.78,72.9c0.98,22.69,0.72,45.39,0.76,68.09
		c0.02,12.92,0.38,25.83,0.63,38.75c0.47,24.81-0.13,49.64,0.29,74.45c0.16,9.49,0.66,18.99,0.6,28.49
		c-0.01,2.31,0.96,2.98,3.01,2.78c-0.79,12.6-2.6,25.09-4.01,37.62c-3.5,31.09-7,62.17-10.53,93.26
		c-0.64,5.61-1.45,11.21-2.18,16.81c-14.62-0.01-29.23-0.03-43.85-0.04c-58.07,0-116.14-0.01-174.21,0.01
		c-3.93,0-7.94-0.07-11.77,0.23c-6.95,0.56-13.86,0.25-20.78,0.5c-0.5-24.57-0.35-49.16-0.98-73.72
		c-0.93-36.24,0.11-72.48-0.78-108.7c-0.28-11.44,0.2-22.91-0.73-34.3c-1-12.23,0.15-24.46-0.73-36.63
		c-1.23-17.11,0.12-34.24-0.78-51.31c-1.35-25.48-0.3-50.96-0.64-76.44c-0.25-18.91-1.1-37.8-0.98-56.72
		c0.02-3.85,0.71-4.53,4.32-4.44c10.69,0.26,21.38,0.1,32.08,0.1c2.09,11.74,8.7,17.27,20.35,17.26
		c47.48-0.07,94.97-0.16,142.45-0.06c7.65,0.02,13.82-2.16,18.35-8.52C291.93,82.98,291.76,79.52,292.82,76.39z M156.7,145.06
		c5.31-5.87,4.4-9.56-3.16-11.98c-2.42-0.78-5.02-1.13-7.57-1.39c-30.88-3.14-55.97,23.88-49.91,53.71
		c4.85,23.87,26.43,38.46,51.64,34.91c22.92-3.22,39.59-24.2,37.53-47.53c-0.76-8.57-2.99-16.77-9.07-23.31
		c-3.98-4.27-6.94-4.41-11.36-0.94C162.1,147.37,159.4,146.21,156.7,145.06z M208.97,274.16c0,0.01,0,0.02,0,0.03
		c-29.24,0-58.48-0.01-87.71,0.01c-4.71,0-7.76,2.56-7.7,6.28c0.06,3.44,3.16,5.89,7.68,5.89c58.22,0,116.44-0.02,174.66-0.05
		c1.15,0,2.34-0.05,3.44-0.35c3.06-0.84,4.37-3.1,4.21-6.11c-0.15-2.85-1.66-4.89-4.57-5.47c-1.5-0.3-3.08-0.24-4.62-0.24
		C265.9,274.15,237.43,274.16,208.97,274.16z M209.52,357.65c0,0.05,0,0.1,0,0.15c-27.04,0-54.08,0-81.12,0
		c-3.09,0-6.2-0.14-9.26,0.16c-3.05,0.3-4.88,2.31-5.2,5.35c-0.32,3.04,1.06,5.18,3.98,6.31c1.37,0.53,2.77,0.53,4.18,0.53
		c57.94-0.04,115.88-0.08,173.82-0.14c4.9,0,7.77-2.46,7.82-6.57c0.05-4.09-2.21-5.79-7.7-5.79
		C267.2,357.65,238.36,357.65,209.52,357.65z M209.58,327.56c0,0.03,0,0.05,0,0.08c-28.86,0-57.71-0.01-86.57,0.02
		c-1.53,0-3.12,0.04-4.58,0.44c-3.13,0.87-4.69,3.14-4.47,6.37c0.22,3.21,2.35,4.78,5.34,5.13c2.17,0.25,4.37,0.2,6.56,0.2
		c33.88,0,67.76-0.02,101.64-0.04c22.8-0.02,45.6-0.03,68.4-0.09c5.1-0.01,7.88-2.42,7.8-6.51c-0.08-3.92-2.37-5.6-7.56-5.59
		C267.29,327.57,238.43,327.56,209.58,327.56z M248.39,426.28c0-0.05,0-0.09,0-0.14c15.96,0,31.93,0.05,47.89-0.03
		c4.89-0.02,7.64-2.49,7.56-6.33c-0.08-3.84-2.49-5.67-7.56-5.67c-31.29,0.03-62.57,0.07-93.86,0.11c-1.29,0-2.6-0.08-3.85,0.14
		c-2.93,0.51-5.08,2.13-5.32,5.25c-0.23,3.03,1.41,5.1,4.21,6.25c1.36,0.56,2.78,0.42,4.19,0.42
		C217.23,426.29,232.81,426.28,248.39,426.28z M160.22,246.38c0,0.03,0,0.05,0,0.08c-13.52,0-27.04-0.04-40.56,0.03
		c-4.07,0.02-6.97,2.8-6.9,6.26c0.07,3.44,2.71,5.85,6.79,5.85c26.65,0,53.31-0.03,79.96-0.13c4.26-0.01,6.86-2.62,6.75-6.31
		c-0.12-3.84-2.49-5.79-7.03-5.79C186.23,246.39,173.22,246.38,160.22,246.38z M130.51,426.46c1.41,0,2.83,0,4.24,0
		c1.54,0,3.09,0.06,4.62-0.01c4.25-0.21,7.23-2.72,7.19-6c-0.05-3.69-2.8-6.13-7.36-6.21c-5.78-0.1-11.56-0.06-17.34,0.03
		c-4.22,0.07-7.39,2.94-7.27,6.39c0.11,3.17,3.32,5.71,7.44,5.79C124.86,426.51,127.69,426.46,130.51,426.46z"/>
	<path class="st0" d="M50.77,338.5c-0.55-17.98-0.66-35.98-1.94-53.94c-0.26-3.59-0.18-7.2-0.31-10.8
		c-0.81-23.39-1.61-46.78-2.46-70.16c-0.39-10.53-0.84-21.06-1.38-31.58c-0.97-18.87-0.64-37.8-2.21-56.65
		c-1.25-14.99,6.28-24.38,22.13-25.22c0.62,3.56,0.86,7.13,0.87,10.75c0.04,18.41-0.06,36.83,0.24,55.24
		c0.59,35,1.15,69.99,1.71,104.99c0.29,18.27,0.2,36.55,0.64,54.81c0.9,37.2,0.07,74.41,0.85,111.6c0.51,24.18,1.1,48.35,1.43,72.54
		c0.02,2.54,0.04,5.08,0.06,7.61c-0.03,4.68-0.07,9.35-0.08,14.03c0,0.98-0.18,2.15,1.41,2.1c2.44,0.07,4.88,0.2,7.32,0.2
		c82.91,0.04,165.82,0.07,248.73,0.11c-1.83,8.46,0.57,16.56,2.31,24.67c0.66,3.05,0.3,4.4-3.08,4.01c-0.84-0.09-1.73,0.31-2.6,0.49
		c-5.91,0.07-11.82,0.15-17.73,0.22c-18.58-0.43-37.14,0.73-55.72,0.92c-0.48,0.01-0.96,0.3-1.44,0.46
		c-18.52-0.11-37.02,0.75-55.53,1.38c-3.34,0.11-6.69,0.13-10.04,0.14c-27.79,0.09-55.54,1.89-83.33,1.91
		c-6.02,0-12.07,0.52-18.11,0.55c-12.1,0.06-19.62-5.52-23.03-17.1c-1.02-3.45-1.65-6.99-1.62-10.64
		c0.09-15.83-0.99-31.61-1.7-47.41c-0.15-7.69,0.66-15.4-0.7-23.06c0,0-0.03-0.09-0.03-0.09c-0.04-5.45,0.52-10.92-0.66-16.33
		c-0.06-3.59-0.12-7.19-0.17-10.78c-0.06-5.88,0.59-11.79-0.69-17.63c0,0-0.03-0.03-0.03-0.03c-0.04-4.7,0.49-9.42-0.66-14.06
		c-0.04-2.55-0.09-5.1-0.13-7.65c-0.1-5.65,0.54-11.34-0.69-16.94c-0.03-1.07-0.07-2.14-0.1-3.21c0-3.64,0.52-7.3-0.6-10.87
		c-0.04-1.77-0.09-3.54-0.13-5.31c-0.13-5.89,0.55-11.82-0.73-17.66C50.81,339.58,50.79,339.04,50.77,338.5z"/>
	<path class="st0" d="M368.72,530.27c-9.3-1.1-18.35-2.2-27.41-3.21c-1.54-0.17-1.81-0.68-1.63-2.21
		c1.87-15.42,3.64-30.86,5.43-46.29c1.89-16.33,3.8-32.65,5.66-48.98c2.27-19.9,4.53-39.8,6.76-59.71
		c1.66-14.8,3.32-29.61,4.85-44.42c0.28-2.72,0.9-3.9,4.01-3.35c8.85,1.56,17.85,2,26.7,3.7c2.53,0.49,2.76,1.54,2.51,3.62
		c-2.79,23.07-5.63,46.14-8.26,69.24c-2.49,21.82-4.74,43.66-7.13,65.49c-2.32,21.19-4.75,42.38-6.94,63.58
		C372.86,531.63,370.27,529.78,368.72,530.27z"/>
	<path class="st0" d="M349.26,331.83c-1.21-18.62-0.5-37.28-1.03-55.91c-0.77-27.13-0.25-54.28-0.78-81.4
		c-0.67-34.47-0.49-68.94-0.58-103.4c6.05-0.04,12.1-0.33,18.13-0.05c10.57,0.49,19.61,9.46,19.86,20.04
		c0.34,14.27-0.78,28.52-1.37,42.78c-0.28,6.81-0.65,13.61-0.88,20.42c-0.63,18.89-0.79,37.81-1.92,56.67
		c-0.84,14.12-0.87,28.26-1.91,42.36c-0.18,2.41-0.81,3.72-3.33,4.26c-11.41,2.45-22.2,14.73-22.62,28
		C352.57,314.37,350.52,323.09,349.26,331.83z"/>
	<path class="st8" d="M327.79,524.12c-82.91-0.03-165.82-0.06-248.73-0.11c-2.44,0-4.88-0.13-7.32-0.2
		c0.02-5.37,0.02-5.37,6.21-4.48c6.92-0.25,13.84,0.06,20.78-0.5c3.82-0.31,7.84-0.23,11.77-0.23
		c58.07-0.01,116.14-0.01,174.21-0.01c14.62,0,29.23,0.02,43.85,0.04C328.42,520.47,328.84,522.4,327.79,524.12z"/>
	<path class="st0" d="M399.45,307.6c-0.53,8.02,1.28,6.5-7.04,5.86c-7.69-0.59-15.3-2.06-22.98-2.8c-3.59-0.34-4.72-1.28-4.12-5.19
		c1.39-9.1,6.08-14.99,14.19-16.62c10.36-2.08,19.71,5.42,19.95,16.01C399.46,305.64,399.45,306.42,399.45,307.6z"/>
	<path class="st0" d="M348.62,579.21c-2.17-5.66-3.17-11.62-4.52-17.46c-1.56-6.75-2.61-13.62-4.03-20.4
		c-0.53-2.55-0.28-3.87,2.82-3.4c7.62,1.15,15.26,2.12,22.89,3.19c3.04,0.43,1.67,2.45,1.05,3.73c-3.09,6.5-6.35,12.92-9.54,19.37
		c-1.94,3.92-3.85,7.85-5.81,11.75C350.87,577.22,350.46,578.67,348.62,579.21z"/>
	<path class="st0" d="M200.84,50.89c18.68,0,37.37,0.38,56.03-0.16c8.86-0.26,14.17,4.2,18.61,10.61c2.53,3.66,4.18,7.87,5.2,12.27
		c1.02,4.39-0.66,7.68-4.89,8.83c-2.08,0.56-4.21,0.99-6.45,0.96c-7.89-0.11-15.83,0.43-23.68-0.17
		c-9.85-0.76-19.69-0.59-29.53-0.59c-7.99,0-15.99,0.82-23.97,0.62c-8.08-0.2-16.17-1.15-24.25-0.6
		c-10.62,0.72-21.2-0.33-31.79-0.06c-1.4,0.04-2.82,0.15-4.19,0.43c-7.84,1.65-13.42-3.97-10.45-11.25
		c2.99-7.32,6.6-14.51,13.76-19.02c2.03-1.28,4.03-1.93,6.46-1.92C161.42,50.92,181.13,50.89,200.84,50.89z"/>
	<path class="st5" d="M53.22,401.76c1.16,4.64,0.63,9.37,0.66,14.06c-1.48,2.65-0.34,5.52-0.69,8.27c-0.13,1,0.11,2.18-1.34,2.36
		c-1.43,0.18-1.27-1.12-1.83-1.86c-3.14-4.18-1-9.12-2.17-13.56c-0.39-1.47-0.26-3.68,1.31-4.02c2.11-0.45,1.58,2.13,2.33,3.3
		c0.5,0.78-0.33,2.08,1.24,2.82C53.68,409.28,52.91,405.49,53.22,401.76z"/>
	<path class="st0" d="M249.54,554.89c0.48-0.16,0.96-0.46,1.44-0.46c18.57-0.19,37.13-1.35,55.72-0.92
		c-0.71,0.74-1.64,0.63-2.53,0.62C285.95,553.91,267.76,555.51,249.54,554.89z"/>
	<path class="st5" d="M47.86,438.94c0.17-1.94,1.01-3.3,2.9-3.57c1.08-0.15,1.82,0.91,1.49,1.72c-0.77,1.88,0.09,5-2.53,5.39
		C47.88,442.76,48.87,439.94,47.86,438.94z"/>
	<path class="st1" d="M292.06,564.17c-0.78,0-1.55,0.01-2.33,0.01c0.25-1.24-1.79-2.67,0.12-3.69c1.54-0.83,3.44-1.66,4.65,0.48
		C296.02,563.65,292.62,562.89,292.06,564.17z"/>
	<path class="st5" d="M55.47,460.68c1.37,7.65,0.55,15.37,0.7,23.06c-1.46-3.42-0.45-6.99-0.62-10.48
		C55.35,469.07,55.48,464.88,55.47,460.68z"/>
	<path class="st5" d="M53.91,415.86c1.28,5.84,0.63,11.75,0.69,17.63C53.12,427.66,54.39,421.72,53.91,415.86z"/>
	<path class="st5" d="M54.78,444.27c1.18,5.4,0.61,10.88,0.66,16.33C53.92,455.2,55.08,449.71,54.78,444.27z"/>
	<path class="st1" d="M268.99,563.15c1.6-0.64,2.83-0.78,5,0.56C271.73,564.14,270.47,564.63,268.99,563.15z"/>
	<path class="st8" d="M70.4,507.68c-0.02-2.54-0.04-5.08-0.06-7.61C71.39,502.59,71.29,505.13,70.4,507.68z"/>
	<path class="st3" d="M52.29,373.96c0.04,1.07,0.07,2.14,0.1,3.21c0,4.58,0,9.16,0,14.29c-1.15-1.64-0.88-2.96-0.7-4.08
		c1-6.19-1.87-12.13-1.25-18.8C52.56,370.27,50.79,372.66,52.29,373.96z"/>
	<path class="st3" d="M51.56,357.78c0.04,1.77,0.09,3.54,0.13,5.31c-0.18,1.17,0.23,2.47-0.61,3.69
		C48.56,361.61,48.74,358.86,51.56,357.78z"/>
	<path class="st3" d="M50.77,338.5c0.02,0.54,0.04,1.08,0.06,1.62c0,4.58,0,9.16,0,13.73C50.55,348.73,49.24,343.59,50.77,338.5z"/>
	<path class="st0" d="M156.7,145.06c2.7,1.16,5.4,2.31,8.1,3.47c-0.26,3.67,1.26,6.72,3.27,9.65c5.82,8.49,7.16,17.61,4.26,27.57
		c-5.03,17.3-25.55,28.13-42.5,22.19c-15.51-5.43-23.51-17.58-22.7-34.47c0.67-14.03,13.96-28,27.81-30.04
		C142.43,142.32,149.51,143.61,156.7,145.06z"/>
	<path class="st3" d="M156.7,145.06c-7.18-1.45-14.26-2.74-21.76-1.64c-13.85,2.04-27.15,16.01-27.81,30.04
		c-0.8,16.89,7.2,29.04,22.7,34.47c16.95,5.94,37.47-4.89,42.5-22.19c2.9-9.96,1.56-19.08-4.26-27.57
		c-2.01-2.93-3.53-5.98-3.27-9.65c4.43-3.47,7.38-3.33,11.36,0.94c6.09,6.54,8.32,14.74,9.07,23.31
		c2.06,23.33-14.61,44.31-37.53,47.53c-25.22,3.55-46.79-11.03-51.64-34.91c-6.06-29.83,19.03-56.85,49.91-53.71
		c2.55,0.26,5.14,0.61,7.57,1.39C161.09,135.5,162.01,139.19,156.7,145.06z"/>
	<path class="st9" d="M208.97,274.16c28.47,0,56.93,0,85.4,0.01c1.54,0,3.12-0.05,4.62,0.24c2.91,0.57,4.42,2.62,4.57,5.47
		c0.16,3.01-1.15,5.27-4.21,6.11c-1.1,0.3-2.29,0.34-3.44,0.35c-58.22,0.03-116.44,0.05-174.66,0.05c-4.52,0-7.62-2.45-7.68-5.89
		c-0.07-3.73,2.98-6.28,7.7-6.28c29.24-0.02,58.48-0.01,87.71-0.01C208.97,274.18,208.97,274.17,208.97,274.16z"/>
	<path class="st6" d="M209.52,357.65c28.84,0,57.68,0,86.52,0c5.49,0,7.75,1.71,7.7,5.79c-0.05,4.1-2.92,6.56-7.82,6.57
		c-57.94,0.06-115.88,0.1-173.82,0.14c-1.41,0-2.81,0-4.18-0.53c-2.92-1.13-4.29-3.27-3.98-6.31c0.32-3.04,2.15-5.05,5.2-5.35
		c3.06-0.3,6.17-0.16,9.26-0.16c27.04-0.01,54.08,0,81.12,0C209.52,357.74,209.52,357.7,209.52,357.65z"/>
	<path class="st9" d="M209.58,327.56c28.86,0,57.71,0,86.57,0c5.19,0,7.48,1.67,7.56,5.59c0.08,4.09-2.7,6.5-7.8,6.51
		c-22.8,0.06-45.6,0.07-68.4,0.09c-33.88,0.02-67.76,0.03-101.64,0.04c-2.19,0-4.39,0.05-6.56-0.2c-2.99-0.34-5.12-1.92-5.34-5.13
		c-0.22-3.23,1.33-5.49,4.47-6.37c1.46-0.41,3.05-0.44,4.58-0.44c28.86-0.02,57.71-0.02,86.57-0.02
		C209.58,327.62,209.58,327.59,209.58,327.56z"/>
	<path class="st1" d="M248.39,426.28c-15.58,0-31.16,0-46.74,0c-1.41,0-2.83,0.14-4.19-0.42c-2.8-1.16-4.44-3.22-4.21-6.25
		c0.24-3.12,2.39-4.73,5.32-5.25c1.25-0.22,2.57-0.14,3.85-0.14c31.29-0.04,62.57-0.08,93.86-0.11c5.07,0,7.48,1.83,7.56,5.67
		c0.08,3.84-2.67,6.31-7.56,6.33c-15.96,0.07-31.93,0.03-47.89,0.03C248.39,426.19,248.39,426.24,248.39,426.28z"/>
	<path class="st9" d="M160.22,246.38c13,0,26.01,0,39.01,0c4.53,0,6.91,1.95,7.03,5.79c0.11,3.68-2.49,6.29-6.75,6.31
		c-26.65,0.09-53.3,0.13-79.96,0.13c-4.08,0-6.72-2.41-6.79-5.85c-0.07-3.46,2.83-6.24,6.9-6.26c13.52-0.07,27.04-0.03,40.56-0.03
		C160.22,246.44,160.22,246.41,160.22,246.38z"/>
	<path class="st9" d="M130.51,426.46c-2.83,0-5.65,0.05-8.48-0.01c-4.11-0.08-7.33-2.63-7.44-5.79c-0.12-3.45,3.04-6.32,7.27-6.39
		c5.78-0.09,11.56-0.13,17.34-0.03c4.56,0.08,7.32,2.51,7.36,6.21c0.04,3.27-2.93,5.78-7.19,6c-1.54,0.08-3.08,0.01-4.62,0.01
		C133.34,426.46,131.92,426.46,130.51,426.46z"/>
</g>
</svg>
