<?xml version="1.0" encoding="utf-8"?>
<!-- Generator: Adobe Illustrator 24.2.1, SVG Export Plug-In . SVG Version: 6.00 Build 0)  -->
<svg version="1.1" id="Layer_1" xmlns="http://www.w3.org/2000/svg" xmlns:xlink="http://www.w3.org/1999/xlink" x="0px" y="0px"
	 viewBox="0 0 545 605" style="enable-background:new 0 0 545 605;" xml:space="preserve">
<style type="text/css">
	.st0{fill:#C3A6D1;}
	.st1{fill:#544664;}
	.st2{fill:#EFE9DB;}
</style>
<g>
	<path class="st0" d="M337.85,522.5c1.28-0.56,2.56-1.12,3.83-1.69l4.03-171.77c-1.27,0.25-2.53,0.51-3.81,0.78L337.85,522.5z"/>
	<path class="st0" d="M493.16,411.04c1.49-2.47,2.81-4.92,3.96-7.32l0.88-37.32c-1.05-1.73-2.28-3.37-3.67-4.92L493.16,411.04z"/>
	<path class="st0" d="M325,527.98c1.28-0.53,2.55-1.06,3.82-1.6l4.1-174.6c-1.27,0.29-2.53,0.58-3.81,0.88L325,527.98z"/>
	<path class="st0" d="M273.66,546.87c1.27-0.41,2.54-0.82,3.82-1.24l4.22-179.79c-1.27,0.41-2.54,0.83-3.82,1.24L273.66,546.87z"/>
	<path class="st0" d="M350.71,516.7c1.28-0.6,2.56-1.2,3.83-1.8l3.95-168.26c-1.26,0.22-2.53,0.45-3.8,0.68L350.71,516.7z"/>
	<path class="st0" d="M286.49,542.58c1.27-0.44,2.54-0.88,3.82-1.33l4.21-179.38c-1.27,0.38-2.54,0.76-3.81,1.15L286.49,542.58z"/>
	<path class="st0" d="M299.32,538.01c1.27-0.47,2.55-0.94,3.82-1.42l4.19-178.38c-1.27,0.35-2.54,0.7-3.81,1.06L299.32,538.01z"/>
	<path class="st0" d="M312.16,533.15c1.28-0.5,2.55-1,3.82-1.51l4.15-176.8c-1.27,0.32-2.54,0.65-3.81,0.98L312.16,533.15z"/>
	<path class="st0" d="M376.46,504.01c1.29-0.67,2.56-1.35,3.83-2.03l3.74-159.05c-1.26,0.14-2.52,0.29-3.8,0.45L376.46,504.01z"/>
	<path class="st0" d="M466.98,442.24c1.32-1.25,2.62-2.5,3.88-3.75l2.12-90.38c-1.22-0.45-2.47-0.87-3.76-1.28L466.98,442.24z"/>
	<path class="st0" d="M453.98,453.73c1.31-1.09,2.6-2.18,3.86-3.26l2.49-106.01c-1.23-0.28-2.49-0.54-3.77-0.78L453.98,453.73z"/>
	<path class="st0" d="M441.02,463.94c1.3-0.97,2.59-1.95,3.86-2.93l2.79-118.76c-1.24-0.16-2.5-0.31-3.78-0.44L441.02,463.94z"/>
	<path class="st0" d="M480.02,428.74c1.35-1.55,2.66-3.09,3.9-4.63l1.64-69.92c-1.19-0.76-2.43-1.48-3.74-2.17L480.02,428.74z"/>
	<path class="st0" d="M428.08,473.2c1.3-0.89,2.58-1.78,3.85-2.67l3.04-129.46c-1.25-0.07-2.51-0.14-3.78-0.19L428.08,473.2z"/>
	<path class="st0" d="M402.24,489.66c1.29-0.76,2.57-1.53,3.84-2.3l3.44-146.46c-1.25,0.05-2.52,0.11-3.79,0.18L402.24,489.66z"/>
	<path class="st0" d="M415.15,481.74c1.29-0.82,2.58-1.64,3.84-2.47l3.26-138.6c-1.25-0.01-2.51,0-3.79,0.01L415.15,481.74z"/>
	<path class="st0" d="M389.35,497.06c1.29-0.72,2.57-1.43,3.84-2.15l3.6-153.22c-1.26,0.1-2.52,0.21-3.79,0.33L389.35,497.06z"/>
	<path class="st0" d="M363.58,510.54c1.28-0.63,2.56-1.26,3.83-1.9l3.85-164.05c-1.26,0.18-2.53,0.37-3.8,0.57L363.58,510.54z"/>
	<path class="st0" d="M95.01,568.94c1.23,0.26,2.49,0.51,3.77,0.74l2.62-111.35c-1.31,1.08-2.6,2.15-3.86,3.23L95.01,568.94z"/>
	<path class="st0" d="M107.69,571.02c1.24,0.15,2.5,0.29,3.78,0.42l2.89-123.2c-1.3,0.97-2.59,1.93-3.86,2.9L107.69,571.02z"/>
	<path class="st0" d="M120.39,572.12c1.25,0.07,2.51,0.13,3.78,0.17l3.13-133.24c-1.3,0.88-2.58,1.77-3.85,2.65L120.39,572.12z"/>
	<path class="st0" d="M145.83,572.16c1.26-0.06,2.52-0.12,3.79-0.19l3.51-149.25c-1.29,0.76-2.57,1.52-3.84,2.29L145.83,572.16z"/>
	<path class="st0" d="M133.1,572.45c1.25,0,2.51-0.01,3.79-0.03l3.33-141.84c-1.29,0.82-2.57,1.64-3.84,2.46L133.1,572.45z"/>
	<path class="st0" d="M260.84,550.87c1.27-0.38,2.54-0.77,3.81-1.16l4.22-179.6c-1.27,0.44-2.54,0.88-3.82,1.32L260.84,550.87z"/>
	<path class="st0" d="M82.37,565.46c1.22,0.43,2.47,0.83,3.76,1.22l2.28-97c-1.33,1.24-2.61,2.47-3.87,3.71L82.37,565.46z"/>
	<path class="st0" d="M69.78,559.69c1.19,0.71,2.44,1.4,3.74,2.05l1.85-78.81c-1.35,1.52-2.65,3.03-3.89,4.53L69.78,559.69z"/>
	<path class="st0" d="M57.32,548.55c1.08,1.53,2.31,3,3.68,4.38l1.24-52.92c-1.46,2.29-2.78,4.55-3.95,6.78L57.32,548.55z"/>
	<path class="st0" d="M235.23,557.96c1.27-0.32,2.54-0.64,3.81-0.98l4.17-177.5c-1.28,0.5-2.55,1-3.82,1.5L235.23,557.96z"/>
	<path class="st0" d="M222.43,561.05c1.26-0.29,2.54-0.59,3.81-0.89l4.12-175.54c-1.28,0.53-2.55,1.06-3.82,1.59L222.43,561.05z"/>
	<path class="st0" d="M248.03,554.56c1.27-0.35,2.54-0.71,3.81-1.07l4.2-178.84c-1.27,0.47-2.55,0.93-3.82,1.41L248.03,554.56z"/>
	<path class="st0" d="M209.65,563.82c1.26-0.26,2.53-0.52,3.81-0.79l4.06-172.96c-1.28,0.56-2.56,1.12-3.83,1.68L209.65,563.82z"/>
	<path class="st0" d="M196.86,566.27c1.26-0.22,2.53-0.46,3.8-0.69l3.99-169.73c-1.28,0.59-2.56,1.19-3.83,1.78L196.86,566.27z"/>
	<path class="st0" d="M158.57,571.34c1.26-0.1,2.52-0.22,3.79-0.34l3.66-155.64c-1.29,0.71-2.57,1.42-3.84,2.14L158.57,571.34z"/>
	<path class="st0" d="M171.33,570.05c1.26-0.15,2.53-0.31,3.8-0.47l3.78-161.12c-1.29,0.67-2.56,1.34-3.83,2.01L171.33,570.05z"/>
	<path class="st0" d="M184.09,568.34c1.26-0.19,2.53-0.38,3.8-0.58l3.89-165.8c-1.28,0.63-2.56,1.26-3.83,1.89L184.09,568.34z"/>
</g>
<g>
	<path class="st1" d="M281.77,219.81c0-62.18,0-124.35,0-186.53c0-0.94-0.02-1.88,0.06-2.82c0.17-2.07,1.32-3.38,3.38-3.46
		c2.05-0.08,3.31,1.21,3.76,3.15c0.21,0.9,0.14,1.87,0.14,2.8c0.03,10.8,0.09,21.6,0.03,32.4c-0.01,2.96,0.55,5.66,1.65,8.44
		c8.13,20.42,15.2,41.21,22.03,62.09c15.72,48.02,29.15,96.69,41.68,145.63c8.89,34.75,17.01,69.67,23.51,104.95
		c0.71,3.88-1.87,6.77-6.38,6.86c-5.45,0.11-10.89,0.04-16.34,0.04c-21.13,0-42.26,0.03-63.4-0.03c-2.01-0.01-2.83,0.37-2.75,2.59
		c0.16,4.6,0.09,9.2-0.03,13.8c-0.04,1.55,0.32,2.33,1.95,2.75c13.09,3.4,25.89,7.75,38.8,11.74c4.8,1.48,9.95,1.74,14.35,4.63
		c0.94,0.62,2.57,0.21,3.88,0.21c29.21-0.01,58.42,0.02,87.63-0.13c3.18-0.02,5.65,1.64,8.21,2.72c6.4,2.7,12.44,6.26,18.63,9.47
		c0.17,0.09,0.33,0.19,0.5,0.27c6.78,2.94,7.56,8.85,0.39,13.29c-5.6,3.46-11.32,6.74-17.12,9.86
		c-12.93,6.93-26.33,12.71-40.63,16.22c-3.65,0.9-7.36,1.34-11.13,1.34c-90.82-0.01-181.64-0.03-272.47,0.07
		c-7,0.01-12.78-2.55-18.16-6.54c-7.1-5.26-12.74-11.93-17.77-19.11c-4.25-6.07-8.27-12.31-12.38-18.49
		c-1.33-2.01-2.24-3.98-0.75-6.46c1.41-2.35,3.4-2.47,5.78-2.46c20.47,0.08,40.95,0.07,61.42,0.07c0.46,0,0.99,0.02,1.37-0.19
		c4.95-2.7,10.55-3.37,15.78-5.13c9.71-3.28,19.64-5.58,29.56-7.94c20.15-4.79,40.63-7.39,61.29-8.54
		c10.27-0.57,20.47,0.4,30.55,2.31c2.53,0.48,2.96-0.14,2.96-2.52c-0.06-62.46-0.04-124.91-0.04-187.37
		C281.74,219.81,281.75,219.81,281.77,219.81z M289.74,90.88c-0.17,0.06-0.34,0.11-0.51,0.17c0,8.45,0,16.9,0,25.35
		c0,89.02,0,178.03-0.07,267.04c0,2.63,0.55,3.48,3.35,3.46c20.66-0.14,41.31-0.08,61.97-0.12c4.79-0.01,9.58-0.17,14.36-0.2
		c1.56-0.01,2.14-0.38,1.77-2.13c-3.16-15.06-5.97-30.2-9.39-45.21c-10.03-44.03-21.52-87.68-33.81-131.12
		c-9.99-35.32-20.89-70.35-33.21-104.93C292.76,99.08,291.24,94.99,289.74,90.88z M452.5,444.38c0.05-0.19,0.09-0.38,0.14-0.56
		c-4.51-2.25-9.05-4.46-13.53-6.77c-1.55-0.8-3.11-1.1-4.85-1.1c-28.54,0.02-57.08-0.02-85.63,0.01c-3.61,0-7.06-0.42-10.39-1.89
		c-1.96-0.87-3.97-1.5-6.22-1.5c-59.71,0.06-119.43,0.07-179.14,0.06c-1.91,0-3.59,0.32-5.29,1.32c-2.09,1.23-4.39,2.03-6.93,2.03
		c-18.87,0-37.74,0.05-56.61,0.1c-0.8,0-1.67-0.25-2.45,0.27c-0.08,0.95,0.61,1.55,1.03,2.23c1.23,1.99,2.35,4.45,3.98,5.67
		c1.45,1.08,4.35,0.2,6.61,0.2c106.47-0.02,212.94-0.04,319.41-0.06c2.52,0,5.01,1.03,7.5,0.47c5.05-1.13,10.13-0.09,15.2-0.39
		C441.04,444.12,446.78,444.38,452.5,444.38z M311.01,425.36c-4.01-1.22-8.04-2.38-12.03-3.66c-16.69-5.35-33.76-8.03-51.31-7.19
		c-13.05,0.63-25.99,2.26-38.9,4.23c-10.72,1.64-21.27,4.08-31.75,6.89C221.64,425.45,266.25,425.15,311.01,425.36z"/>
	<path class="st1" d="M192.38,382.62c-18.99,0.19-37.88,1.56-56.68,4.21c-9.12,1.28-18.09,3.29-27.06,5.32
		c-5.49,1.24-8.47-1.73-6.9-7.15c6.27-21.56,13.93-42.64,22.68-63.31c27.21-64.32,61.38-124.73,102.01-181.51
		c9.72-13.59,19.33-27.26,28.98-40.9c0.89-1.25,1.8-2.43,3.46-2.63c2.95-0.35,5.08,2.46,3.78,5.14c-0.69,1.42-1.74,2.66-2.66,3.97
		c-5.52,7.82-11.07,15.63-16.57,23.46c-4.51,6.42-6.25,14.01-8.89,21.21c-10.59,28.84-12.58,58.9-13.04,89.26
		c-0.52,33.99-0.07,67.97,0.82,101.94c0.31,11.81,0.44,23.64,2.02,35.39c0.53,3.89-1.47,5.77-5.77,5.58
		C209.84,382.21,201.11,382.48,192.38,382.62z M225.16,155.74c-0.73,0.48-0.92,0.55-1.02,0.69c-3.07,4.27-6.25,8.46-9.17,12.82
		c-29.76,44.5-55.62,91.15-77.4,140.07c-10.43,23.43-19.89,47.22-27.2,71.83c-1.02,3.45-0.85,3.67,2.53,2.85
		c17.22-4.18,34.75-6.03,52.38-7.22c16.31-1.1,32.64-1.32,48.98-1.15c1.57,0.02,2.91,0.22,2.7-2.24c-1.64-19.47-1.81-39-2.21-58.52
		c-0.63-31.36-0.98-62.71,0.36-94.06c0.79-18.42,2.17-36.74,7.1-54.61C223.13,162.89,224.08,159.58,225.16,155.74z"/>
	<path class="st1" d="M260.6,386.4c-5.41,0.04-10.84-0.5-16.1,1.67c-2.73,1.13-5.45-0.88-5.52-3.85
		c-0.12-6.01-0.07-12.02,0.09-18.02c0.07-2.82,2.66-3.78,5.68-2.6c4,1.57,8.04,3.1,12.24,4.08c3.7,0.86,7.4,0.96,11.17,0.28
		c4.66-0.83,6.74,0.98,6.81,5.67c0.04,2.63,0.05,5.26-0.08,7.89c-0.16,3.24-2.06,4.91-5.28,4.89
		C266.61,386.39,263.6,386.4,260.6,386.4z M245.65,370.54c0,2.93,0.08,5.42-0.03,7.91c-0.07,1.79,0.41,2.3,2.24,1.73
		c4.81-1.48,9.74-1.63,14.72-0.97c1.38,0.18,2.8,0.07,4.21,0.11c1.94,0.06,1.27-1.41,1.39-2.39c0.13-1.06-0.05-1.79-1.45-1.69
		C259.4,375.76,252.42,374.56,245.65,370.54z"/>
	<path class="st2" d="M289.74,90.88c1.49,4.1,3.01,8.2,4.48,12.32c12.32,34.58,23.22,69.61,33.21,104.93
		c12.29,43.44,23.78,87.1,33.81,131.12c3.42,15,6.22,30.14,9.39,45.21c0.37,1.76-0.21,2.13-1.77,2.13
		c-4.79,0.03-9.58,0.19-14.36,0.2c-20.66,0.03-41.32-0.03-61.97,0.12c-2.8,0.02-3.35-0.83-3.35-3.46
		c0.07-89.01,0.06-178.03,0.07-267.04c0-8.45,0-16.9,0-25.35C289.41,91,289.58,90.94,289.74,90.88z"/>
	<path class="st0" d="M452.5,444.38c-5.72,0-11.46-0.26-17.16,0.08c-5.07,0.31-10.15-0.74-15.2,0.39c-2.49,0.56-4.99-0.47-7.5-0.47
		c-106.47,0.02-212.94,0.04-319.41,0.06c-2.26,0-5.16,0.88-6.61-0.2c-1.64-1.21-2.76-3.67-3.98-5.67c-0.42-0.68-1.11-1.28-1.03-2.23
		c0.79-0.52,1.65-0.27,2.45-0.27c18.87-0.05,37.74-0.1,56.61-0.1c2.55,0,4.85-0.8,6.93-2.03c1.7-1,3.38-1.32,5.29-1.32
		c59.71,0.01,119.43,0,179.14-0.06c2.26,0,4.27,0.63,6.22,1.5c3.33,1.47,6.78,1.9,10.39,1.89c28.54-0.03,57.08,0.01,85.63-0.01
		c1.74,0,3.29,0.3,4.85,1.1c4.48,2.31,9.01,4.52,13.53,6.77C452.59,444.01,452.55,444.19,452.5,444.38z"/>
	<path class="st2" d="M311.01,425.36c-44.76-0.21-89.36,0.09-133.99,0.27c10.48-2.81,21.03-5.25,31.75-6.89
		c12.9-1.97,25.85-3.6,38.9-4.23c17.55-0.84,34.62,1.84,51.31,7.19C302.97,422.98,307,424.14,311.01,425.36z"/>
	<path class="st2" d="M225.16,155.74c-1.08,3.83-2.03,7.15-2.95,10.47c-4.94,17.87-6.32,36.19-7.1,54.61
		c-1.34,31.35-0.99,62.7-0.36,94.06c0.39,19.52,0.56,39.05,2.21,58.52c0.21,2.46-1.13,2.25-2.7,2.24
		c-16.34-0.17-32.67,0.05-48.98,1.15c-17.63,1.19-35.16,3.04-52.38,7.22c-3.38,0.82-3.55,0.6-2.53-2.85
		c7.31-24.61,16.77-48.4,27.2-71.83c21.78-48.91,47.64-95.57,77.4-140.07c2.92-4.37,6.1-8.56,9.17-12.82
		C224.23,156.29,224.43,156.23,225.16,155.74z"/>
	<path class="st0" d="M245.65,370.54c6.77,4.02,13.76,5.22,21.08,4.7c1.4-0.1,1.58,0.64,1.45,1.69c-0.12,0.98,0.56,2.45-1.39,2.39
		c-1.4-0.04-2.82,0.08-4.21-0.11c-4.98-0.66-9.91-0.51-14.72,0.97c-1.84,0.56-2.32,0.06-2.24-1.73
		C245.72,375.96,245.65,373.46,245.65,370.54z"/>
</g>
</svg>
